<svg width="29" height="24" viewBox="0 0 29 24" fill="none" xmlns="http://www.w3.org/2000/svg">
<path d="M0 10.8676C0.330438 10.3391 0.854828 10.0799 1.40855 9.86794C8.80748 7.03468 16.2076 4.20261 23.6071 1.37114C24.6631 0.96707 25.7185 0.562404 26.775 0.16073C26.9145 0.107453 27.057 0.0541759 27.2031 0.0284353C28.1076 -0.131396 28.8044 0.394191 28.7625 1.31247C28.7283 2.06135 28.5631 2.80902 28.4075 3.54712C27.5281 7.7153 26.635 11.8811 25.7454 16.0469C25.2809 18.2211 24.8146 20.3953 24.3488 22.5694C24.3351 22.6335 24.3165 22.6958 24.2992 22.7592C23.8837 24.2611 22.7619 24.2222 21.8592 23.5745C19.7592 22.0684 17.6844 20.5282 15.5994 19.0023C15.5246 18.9472 15.448 18.8939 15.3558 18.8275C15.2905 18.8825 15.2253 18.9316 15.1666 18.9879C14.0951 20.0085 13.0236 21.0298 11.9532 22.0516C11.6431 22.348 11.2858 22.5204 10.8194 22.4958C10.8566 21.9241 10.8901 21.3674 10.9296 20.8113C11.0355 19.3076 11.1499 17.805 11.2457 16.3007C11.266 15.9768 11.351 15.738 11.6108 15.5057C15.5509 11.9865 19.4785 8.4528 23.409 4.92215C23.4784 4.85929 23.564 4.80482 23.6089 4.727C23.664 4.63002 23.7418 4.48156 23.7041 4.41392C23.6622 4.3379 23.4898 4.27624 23.3958 4.29898C23.1642 4.35406 22.9229 4.42649 22.723 4.5516C19.2588 6.70783 15.8018 8.87303 12.3441 11.037C10.8212 11.99 9.30134 12.9466 7.77307 13.8913C7.66472 13.9583 7.48753 13.9888 7.3684 13.9523C5.26007 13.3076 3.15592 12.6491 1.05058 11.9942C0.622564 11.8613 0.231666 11.6758 0 11.2609C0 11.1298 0 10.9987 0 10.8676Z" fill="white"/>
</svg>
