<svg width="24" height="24" viewBox="0 0 24 24" fill="none" xmlns="http://www.w3.org/2000/svg">
<path d="M0.0143264 23.9474C0.565892 23.2955 1.1103 22.6437 1.66902 21.999C4.09018 19.1839 6.51134 16.3759 8.92534 13.5608C8.97548 13.5034 9.02563 13.439 9.08293 13.3673C6.06006 8.97631 3.03719 4.58527 0 0.165577C0.0859583 0.158414 0.143264 0.151251 0.200569 0.151251C2.37818 0.151251 4.55579 0.151251 6.7334 0.144088C6.89099 0.144088 6.96263 0.201393 7.04858 0.323167C8.95399 3.10965 10.8666 5.88897 12.7791 8.66829C12.8293 8.73992 12.8794 8.80439 12.9367 8.89035C13.3307 8.4319 13.7175 7.98779 14.0972 7.54367C16.153 5.15116 18.2088 2.76582 20.2575 0.37331C20.4008 0.201393 20.5512 0.136924 20.7661 0.144088C21.3248 0.158414 21.8907 0.151251 22.5068 0.151251C19.5985 3.53228 16.7189 6.87749 13.8393 10.2227C13.8894 10.3015 13.9324 10.366 13.9754 10.4233C17.0198 14.8573 20.0713 19.2913 23.1156 23.7253C23.1658 23.797 23.2016 23.8686 23.2446 23.9402C20.938 23.9402 18.6243 23.9402 16.3178 23.9402C16.2891 23.8972 16.2676 23.8471 16.239 23.8041C14.1903 20.8242 12.1488 17.8443 10.1001 14.8645C10.0643 14.8143 10.0285 14.7713 9.97833 14.714C9.9067 14.7928 9.84223 14.8645 9.78492 14.9361C8.13023 16.8558 6.48269 18.7756 4.82799 20.6953C3.89678 21.7769 2.97273 22.8586 2.04867 23.9402C1.37533 23.9474 0.69483 23.9474 0.0143264 23.9474ZM2.79365 1.69134C2.86528 1.79879 2.90109 1.86325 2.94407 1.92772C7.68611 8.71127 12.4353 15.502 17.1773 22.2927C17.2705 22.4288 17.3707 22.4789 17.5355 22.4718C18.4166 22.4646 19.2976 22.4718 20.1859 22.4646C20.2575 22.4646 20.3363 22.4574 20.4438 22.4503C20.365 22.3357 20.3077 22.2497 20.2432 22.1637C15.5871 15.502 10.9239 8.84737 6.28212 2.17844C6.03141 1.81311 5.7807 1.65552 5.32942 1.67701C4.51281 1.71999 3.67472 1.69134 2.79365 1.69134Z" fill="white"/>
</svg>
