<svg width="580" height="195" viewBox="0 0 580 195" fill="none" xmlns="http://www.w3.org/2000/svg">
<mask id="path-1-outside-1_274_22" maskUnits="userSpaceOnUse" x="23" y="29.1934" width="557" height="94" fill="black">
<rect fill="white" x="23" y="29.1934" width="557" height="94"/>
<path d="M24.2081 122.193L39.4212 30.557H101.974L98.9311 48.5442H58.527L55.4844 67.3368H91.9062L88.8636 85.3688H52.4418L46.3565 122.193H24.2081ZM106.292 122.193H82.4876L128.619 30.557H158.105L173.811 122.193H150.007L139.939 53.6451H139.223L106.292 122.193ZM109.155 86.1294H158.911L156.047 102.953H106.292L109.155 86.1294ZM276.879 30.557L261.666 122.193H242.874L215.266 69.3056H214.64L205.825 122.193H183.677L198.89 30.557H217.951L245.335 83.3553H246.095L254.776 30.557H276.879ZM312.954 30.557L297.741 122.193H275.593L290.806 30.557H312.954ZM348.425 30.557L360.327 59.5066H361.043L382.789 30.557H408.428L373.259 76.3752L394.109 122.193H369.276L356.927 92.9306H356.211L334.197 122.193H308.379L344.488 76.3752L324.308 30.557H348.425ZM404.669 122.193L419.882 30.557H458.094C464.955 30.557 470.548 31.5265 474.873 33.4654C479.198 35.4043 482.241 38.1188 484.001 41.6088C485.79 45.0989 486.298 49.1408 485.522 53.7346C484.896 57.1948 483.613 60.2971 481.674 63.0414C479.765 65.7559 477.379 68.0229 474.515 69.8425C471.651 71.6323 468.489 72.8851 465.029 73.601L464.85 74.4959C468.549 74.6451 471.815 75.6294 474.649 77.449C477.513 79.2686 479.631 81.8191 481.003 85.1003C482.375 88.3517 482.688 92.1699 481.942 96.5549C481.137 101.477 479.153 105.877 475.991 109.754C472.859 113.602 468.728 116.645 463.597 118.882C458.467 121.09 452.531 122.193 445.789 122.193H404.669ZM429.86 104.34H443.552C448.295 104.34 451.964 103.431 454.559 101.611C457.184 99.7615 458.735 97.226 459.212 94.0044C459.6 91.6479 459.391 89.6195 458.586 87.9192C457.781 86.1891 456.438 84.8617 454.559 83.937C452.68 82.9824 450.308 82.5051 447.445 82.5051H433.35L429.86 104.34ZM435.811 68.2317H448.116C450.502 68.2317 452.695 67.829 454.693 67.0236C456.722 66.2182 458.392 65.0549 459.705 63.5336C461.047 62.0122 461.882 60.1777 462.21 58.03C462.717 54.9576 462.016 52.5414 460.107 50.7814C458.198 49.0215 455.409 48.1415 451.74 48.1415H439.122L435.811 68.2317ZM497.513 48.5442L500.556 30.557H578.009L574.966 48.5442H547.18L535.009 122.193H513.174L525.344 48.5442H497.513Z"/>
</mask>
<path d="M24.2081 122.193L23.2216 122.03L23.0284 123.193H24.2081V122.193ZM39.4212 30.557V29.557H38.5735L38.4347 30.3932L39.4212 30.557ZM101.974 30.557L102.96 30.7238L103.157 29.557H101.974V30.557ZM98.9311 48.5442V49.5442H99.7762L99.9171 48.711L98.9311 48.5442ZM58.527 48.5442V47.5442H57.6759L57.5398 48.3844L58.527 48.5442ZM55.4844 67.3368L54.4972 67.177L54.3094 68.3368H55.4844V67.3368ZM91.9062 67.3368L92.8923 67.5032L93.0891 66.3368H91.9062V67.3368ZM88.8636 85.3688V86.3688H89.709L89.8497 85.5352L88.8636 85.3688ZM52.4418 85.3688V84.3688H51.5935L51.4551 85.2057L52.4418 85.3688ZM46.3565 122.193V123.193H47.2048L47.3432 122.356L46.3565 122.193ZM25.1946 122.357L40.4077 30.7208L38.4347 30.3932L23.2216 122.03L25.1946 122.357ZM39.4212 31.557H101.974V29.557H39.4212V31.557ZM100.988 30.3902L97.9451 48.3774L99.9171 48.711L102.96 30.7238L100.988 30.3902ZM98.9311 47.5442H58.527V49.5442H98.9311V47.5442ZM57.5398 48.3844L54.4972 67.177L56.4715 67.4966L59.5141 48.704L57.5398 48.3844ZM55.4844 68.3368H91.9062V66.3368H55.4844V68.3368ZM90.9202 67.1704L87.8776 85.2024L89.8497 85.5352L92.8923 67.5032L90.9202 67.1704ZM88.8636 84.3688H52.4418V86.3688H88.8636V84.3688ZM51.4551 85.2057L45.3699 122.03L47.3432 122.356L53.4284 85.5318L51.4551 85.2057ZM46.3565 121.193H24.2081V123.193H46.3565V121.193ZM106.292 122.193V123.193H106.921L107.193 122.626L106.292 122.193ZM82.4876 122.193L81.5944 121.744L80.8646 123.193H82.4876V122.193ZM128.619 30.557V29.557H128.003L127.726 30.1073L128.619 30.557ZM158.105 30.557L159.091 30.3881L158.949 29.557H158.105V30.557ZM173.811 122.193V123.193H174.997L174.796 122.024L173.811 122.193ZM150.007 122.193L149.017 122.339L149.143 123.193H150.007V122.193ZM139.939 53.6451L140.929 53.4998L140.803 52.6451H139.939V53.6451ZM139.223 53.6451V52.6451H138.594L138.322 53.212L139.223 53.6451ZM109.155 86.1294V85.1294H108.311L108.169 85.9616L109.155 86.1294ZM158.911 86.1294L159.897 86.2972L160.095 85.1294H158.911V86.1294ZM156.047 102.953V103.953H156.891L157.033 103.121L156.047 102.953ZM106.292 102.953L105.306 102.785L105.107 103.953H106.292V102.953ZM106.292 121.193H82.4876V123.193H106.292V121.193ZM83.3808 122.643L129.512 31.0066L127.726 30.1073L81.5944 121.744L83.3808 122.643ZM128.619 31.557H158.105V29.557H128.619V31.557ZM157.12 30.7259L172.825 122.362L174.796 122.024L159.091 30.3881L157.12 30.7259ZM173.811 121.193H150.007V123.193H173.811V121.193ZM150.996 122.048L140.929 53.4998L138.95 53.7904L149.017 122.339L150.996 122.048ZM139.939 52.6451H139.223V54.6451H139.939V52.6451ZM138.322 53.212L105.39 121.76L107.193 122.626L140.125 54.0781L138.322 53.212ZM109.155 87.1294H158.911V85.1294H109.155V87.1294ZM157.925 85.9616L155.061 102.785L157.033 103.121L159.897 86.2972L157.925 85.9616ZM156.047 101.953H106.292V103.953H156.047V101.953ZM107.277 103.121L110.141 86.2972L108.169 85.9616L105.306 102.785L107.277 103.121ZM276.879 30.557L277.866 30.7208L278.059 29.557H276.879V30.557ZM261.666 122.193V123.193H262.514L262.653 122.357L261.666 122.193ZM242.874 122.193L241.987 122.656L242.268 123.193H242.874V122.193ZM215.266 69.3056L216.153 68.8428L215.872 68.3056H215.266V69.3056ZM214.64 69.3056V68.3056H213.793L213.654 69.1412L214.64 69.3056ZM205.825 122.193V123.193H206.672L206.812 122.358L205.825 122.193ZM183.677 122.193L182.69 122.03L182.497 123.193H183.677V122.193ZM198.89 30.557V29.557H198.042L197.903 30.3932L198.89 30.557ZM217.951 30.557L218.839 30.0966L218.559 29.557H217.951V30.557ZM245.335 83.3553L244.447 83.8157L244.727 84.3553H245.335V83.3553ZM246.095 83.3553V84.3553H246.944L247.082 83.5175L246.095 83.3553ZM254.776 30.557V29.557H253.927L253.789 30.3948L254.776 30.557ZM275.893 30.3932L260.68 122.03L262.653 122.357L277.866 30.7208L275.893 30.3932ZM261.666 121.193H242.874V123.193H261.666V121.193ZM243.76 121.731L216.153 68.8428L214.38 69.7683L241.987 122.656L243.76 121.731ZM215.266 68.3056H214.64V70.3056H215.266V68.3056ZM213.654 69.1412L204.839 122.029L206.812 122.358L215.626 69.47L213.654 69.1412ZM205.825 121.193H183.677V123.193H205.825V121.193ZM184.663 122.357L199.876 30.7208L197.903 30.3932L182.69 122.03L184.663 122.357ZM198.89 31.557H217.951V29.557H198.89V31.557ZM217.063 31.0174L244.447 83.8157L246.222 82.8949L218.839 30.0966L217.063 31.0174ZM245.335 84.3553H246.095V82.3553H245.335V84.3553ZM247.082 83.5175L255.762 30.7192L253.789 30.3948L245.108 83.1931L247.082 83.5175ZM254.776 31.557H276.879V29.557H254.776V31.557ZM312.954 30.557L313.941 30.7208L314.134 29.557H312.954V30.557ZM297.741 122.193V123.193H298.589L298.728 122.357L297.741 122.193ZM275.593 122.193L274.606 122.03L274.413 123.193H275.593V122.193ZM290.806 30.557V29.557H289.958L289.819 30.3932L290.806 30.557ZM311.968 30.3932L296.755 122.03L298.728 122.357L313.941 30.7208L311.968 30.3932ZM297.741 121.193H275.593V123.193H297.741V121.193ZM276.579 122.357L291.792 30.7208L289.819 30.3932L274.606 122.03L276.579 122.357ZM290.806 31.557H312.954V29.557H290.806V31.557ZM348.425 30.557L349.35 30.1767L349.096 29.557H348.425V30.557ZM360.327 59.5066L359.403 59.8868L359.657 60.5066H360.327V59.5066ZM361.043 59.5066V60.5066H361.543L361.843 60.1072L361.043 59.5066ZM382.789 30.557V29.557H382.29L381.99 29.9564L382.789 30.557ZM408.428 30.557L409.221 31.1659L410.456 29.557H408.428V30.557ZM373.259 76.3752L372.465 75.7663L372.1 76.2427L372.348 76.7894L373.259 76.3752ZM394.109 122.193V123.193H395.663L395.02 121.779L394.109 122.193ZM369.276 122.193L368.355 122.582L368.613 123.193H369.276V122.193ZM356.927 92.9306L357.848 92.5418L357.59 91.9306H356.927V92.9306ZM356.211 92.9306V91.9306H355.712L355.412 92.3294L356.211 92.9306ZM334.197 122.193V123.193H334.696L334.996 122.795L334.197 122.193ZM308.379 122.193L307.594 121.574L306.318 123.193H308.379V122.193ZM344.488 76.3752L345.273 76.9941L345.645 76.5221L345.403 75.9721L344.488 76.3752ZM324.308 30.557V29.557H322.775L323.393 30.9601L324.308 30.557ZM347.501 30.9372L359.403 59.8868L361.252 59.1263L349.35 30.1767L347.501 30.9372ZM360.327 60.5066H361.043V58.5066H360.327V60.5066ZM361.843 60.1072L383.589 31.1576L381.99 29.9564L360.244 58.906L361.843 60.1072ZM382.789 31.557H408.428V29.557H382.789V31.557ZM407.634 29.9481L372.465 75.7663L374.052 76.9841L409.221 31.1659L407.634 29.9481ZM372.348 76.7894L393.199 122.608L395.02 121.779L374.169 75.961L372.348 76.7894ZM394.109 121.193H369.276V123.193H394.109V121.193ZM370.198 121.805L357.848 92.5418L356.006 93.3194L368.355 122.582L370.198 121.805ZM356.927 91.9306H356.211V93.9306H356.927V91.9306ZM355.412 92.3294L333.398 121.592L334.996 122.795L357.01 93.5317L355.412 92.3294ZM334.197 121.193H308.379V123.193H334.197V121.193ZM309.165 122.812L345.273 76.9941L343.703 75.7562L307.594 121.574L309.165 122.812ZM345.403 75.9721L325.223 30.1539L323.393 30.9601L343.573 76.7782L345.403 75.9721ZM324.308 31.557H348.425V29.557H324.308V31.557ZM404.669 122.193L403.683 122.03L403.489 123.193H404.669V122.193ZM419.882 30.557V29.557H419.034L418.896 30.3932L419.882 30.557ZM484.001 41.6088L483.108 42.0591L483.111 42.0652L484.001 41.6088ZM485.522 53.7346L486.506 53.9127L486.508 53.901L485.522 53.7346ZM481.674 63.0414L480.857 62.4643L480.856 62.4661L481.674 63.0414ZM474.515 69.8425L475.045 70.6905L475.051 70.6865L474.515 69.8425ZM465.029 73.601L464.827 72.6218L464.178 72.7559L464.049 73.4049L465.029 73.601ZM464.85 74.4959L463.87 74.2998L463.64 75.4479L464.81 75.4951L464.85 74.4959ZM474.649 77.449L474.109 78.2905L474.113 78.2931L474.649 77.449ZM481.003 85.1003L480.08 85.4861L480.082 85.4891L481.003 85.1003ZM481.942 96.5549L480.957 96.3872L480.956 96.3934L481.942 96.5549ZM475.991 109.754L475.216 109.122L475.216 109.123L475.991 109.754ZM463.597 118.882L463.993 119.801L463.997 119.799L463.597 118.882ZM429.86 104.34L428.873 104.183L428.688 105.34H429.86V104.34ZM454.559 101.611L455.133 102.43L455.135 102.428L454.559 101.611ZM459.212 94.0044L458.226 93.8421L458.224 93.85L458.223 93.8579L459.212 94.0044ZM458.586 87.9192L457.679 88.3412L457.682 88.3473L458.586 87.9192ZM454.559 83.937L454.106 84.8286L454.117 84.8342L454.559 83.937ZM433.35 82.5051V81.5051H432.497L432.363 82.3473L433.35 82.5051ZM435.811 68.2317L434.824 68.0691L434.633 69.2317H435.811V68.2317ZM454.693 67.0236L454.324 66.0942L454.319 66.0961L454.693 67.0236ZM459.705 63.5336L458.955 62.8719L458.947 62.8803L459.705 63.5336ZM462.21 58.03L461.224 57.8671L461.222 57.879L462.21 58.03ZM439.122 48.1415V47.1415H438.273L438.135 47.9789L439.122 48.1415ZM405.656 122.357L420.869 30.7208L418.896 30.3932L403.683 122.03L405.656 122.357ZM419.882 31.557H458.094V29.557H419.882V31.557ZM458.094 31.557C464.872 31.557 470.311 32.5164 474.464 34.3779L475.282 32.5529C470.784 30.5365 465.037 29.557 458.094 29.557V31.557ZM474.464 34.3779C478.626 36.2435 481.472 38.8151 483.108 42.0591L484.894 41.1586C483.01 37.4224 479.771 34.565 475.282 32.5529L474.464 34.3779ZM483.111 42.0652C484.785 45.3293 485.283 49.1457 484.536 53.5681L486.508 53.901C487.313 49.1359 486.796 44.8685 484.891 41.1525L483.111 42.0652ZM484.538 53.5564C483.936 56.8799 482.708 59.8447 480.857 62.4643L482.491 63.6184C484.518 60.7494 485.855 57.5097 486.506 53.9127L484.538 53.5564ZM480.856 62.4661C479.024 65.071 476.734 67.2475 473.979 68.9985L475.051 70.6865C478.023 68.7983 480.506 66.4407 482.492 63.6166L480.856 62.4661ZM473.985 68.9945C471.226 70.7186 468.176 71.9287 464.827 72.6218L465.232 74.5803C468.803 73.8415 472.076 72.546 475.045 70.6905L473.985 68.9945ZM464.049 73.4049L463.87 74.2998L465.831 74.692L466.01 73.7971L464.049 73.4049ZM464.81 75.4951C468.349 75.6378 471.439 76.5764 474.109 78.2905L475.189 76.6076C472.191 74.6825 468.749 73.6523 464.89 73.4967L464.81 75.4951ZM474.113 78.2931C476.795 79.9975 478.783 82.3839 480.08 85.4861L481.925 84.7145C480.478 81.2543 478.23 78.5398 475.185 76.605L474.113 78.2931ZM480.082 85.4891C481.363 88.5245 481.679 92.1415 480.957 96.3872L482.928 96.7225C483.698 92.1984 483.388 88.179 481.924 84.7115L480.082 85.4891ZM480.956 96.3934C480.179 101.142 478.268 105.38 475.216 109.122L476.767 110.386C480.039 106.373 482.096 101.811 482.929 96.7164L480.956 96.3934ZM475.216 109.123C472.197 112.832 468.201 115.784 463.198 117.966L463.997 119.799C469.255 117.506 473.522 114.373 476.767 110.386L475.216 109.123ZM463.202 117.964C458.219 120.107 452.422 121.193 445.789 121.193V123.193C452.639 123.193 458.714 122.072 463.993 119.801L463.202 117.964ZM445.789 121.193H404.669V123.193H445.789V121.193ZM429.86 105.34H443.552V103.34H429.86V105.34ZM443.552 105.34C448.404 105.34 452.305 104.413 455.133 102.43L453.985 100.792C451.622 102.449 448.186 103.34 443.552 103.34V105.34ZM455.135 102.428C457.987 100.419 459.685 97.639 460.202 94.151L458.223 93.8579C457.785 96.8131 456.381 99.1042 453.983 100.793L455.135 102.428ZM460.199 94.1668C460.611 91.6637 460.403 89.4192 459.49 87.4911L457.682 88.3473C458.38 89.8198 458.589 91.6321 458.226 93.8421L460.199 94.1668ZM459.493 87.4972C458.581 85.5397 457.063 84.0547 455 83.0397L454.117 84.8342C455.813 85.6687 456.98 86.8385 457.679 88.3412L459.493 87.4972ZM455.012 83.0454C452.951 81.9987 450.412 81.5051 447.445 81.5051V83.5051C450.205 83.5051 452.408 83.9661 454.106 84.8285L455.012 83.0454ZM447.445 81.5051H433.35V83.5051H447.445V81.5051ZM432.363 82.3473L428.873 104.183L430.848 104.498L434.338 82.663L432.363 82.3473ZM435.811 69.2317H448.116V67.2317H435.811V69.2317ZM448.116 69.2317C450.616 69.2317 452.937 68.8093 455.067 67.9511L454.319 66.0961C452.452 66.8487 450.388 67.2317 448.116 67.2317V69.2317ZM455.062 67.953C457.227 67.0934 459.035 65.8404 460.462 64.1868L458.947 62.8803C457.749 64.2693 456.216 65.343 454.324 66.0942L455.062 67.953ZM460.454 64.1952C461.933 62.5198 462.844 60.5043 463.199 58.181L461.222 57.879C460.92 59.8512 460.161 61.5047 458.955 62.8719L460.454 64.1952ZM463.197 58.1928C463.746 54.8644 462.994 52.0823 460.785 50.0462L459.429 51.5167C461.039 53.0005 461.688 55.0507 461.224 57.8672L463.197 58.1928ZM460.785 50.0462C458.627 48.0568 455.557 47.1415 451.74 47.1415V49.1415C455.262 49.1415 457.769 49.9862 459.429 51.5167L460.785 50.0462ZM451.74 47.1415H439.122V49.1415H451.74V47.1415ZM438.135 47.9789L434.824 68.0691L436.798 68.3943L440.109 48.3041L438.135 47.9789ZM497.513 48.5442L496.527 48.3774L496.33 49.5442H497.513V48.5442ZM500.556 30.557V29.557H499.711L499.57 30.3902L500.556 30.557ZM578.009 30.557L578.995 30.7238L579.192 29.557H578.009V30.557ZM574.966 48.5442V49.5442H575.811L575.952 48.711L574.966 48.5442ZM547.18 48.5442V47.5442H546.331L546.193 48.3812L547.18 48.5442ZM535.009 122.193V123.193H535.858L535.996 122.356L535.009 122.193ZM513.174 122.193L512.187 122.03L511.995 123.193H513.174V122.193ZM525.344 48.5442L526.331 48.7072L526.523 47.5442H525.344V48.5442ZM498.499 48.711L501.542 30.7238L499.57 30.3902L496.527 48.3774L498.499 48.711ZM500.556 31.557H578.009V29.557H500.556V31.557ZM577.023 30.3902L573.98 48.3774L575.952 48.711L578.995 30.7238L577.023 30.3902ZM574.966 47.5442H547.18V49.5442H574.966V47.5442ZM546.193 48.3812L534.023 122.03L535.996 122.356L548.166 48.7072L546.193 48.3812ZM535.009 121.193H513.174V123.193H535.009V121.193ZM514.161 122.356L526.331 48.7072L524.358 48.3812L512.187 122.03L514.161 122.356ZM525.344 47.5442H497.513V49.5442H525.344V47.5442Z" fill="white" mask="url(#path-1-outside-1_274_22)"/>
<path d="M1.2081 164.193L16.4212 72.557H78.9737L75.9311 90.5442H35.527L32.4844 109.337H68.9062L65.8636 127.369H29.4418L23.3565 164.193H1.2081ZM83.2915 164.193H59.4876L105.619 72.557H135.105L150.811 164.193H127.007L116.939 95.6451H116.223L83.2915 164.193ZM86.1552 128.129H135.911L133.047 144.953H83.2915L86.1552 128.129ZM253.879 72.557L238.666 164.193H219.874L192.266 111.306H191.64L182.825 164.193H160.677L175.89 72.557H194.951L222.335 125.355H223.095L231.776 72.557H253.879ZM289.954 72.557L274.741 164.193H252.593L267.806 72.557H289.954ZM325.425 72.557L337.327 101.507H338.043L359.789 72.557H385.428L350.259 118.375L371.109 164.193H346.276L333.927 134.931H333.211L311.197 164.193H285.379L321.488 118.375L301.308 72.557H325.425ZM381.669 164.193L396.882 72.557H435.094C441.955 72.557 447.548 73.5265 451.873 75.4654C456.198 77.4043 459.241 80.1188 461.001 83.6088C462.79 87.0989 463.298 91.1408 462.522 95.7346C461.896 99.1948 460.613 102.297 458.674 105.041C456.765 107.756 454.379 110.023 451.515 111.843C448.651 113.632 445.489 114.885 442.029 115.601L441.85 116.496C445.549 116.645 448.815 117.629 451.649 119.449C454.513 121.269 456.631 123.819 458.003 127.1C459.375 130.352 459.688 134.17 458.942 138.555C458.137 143.477 456.153 147.877 452.991 151.754C449.859 155.602 445.728 158.645 440.597 160.882C435.467 163.09 429.531 164.193 422.789 164.193H381.669ZM406.86 146.34H420.552C425.295 146.34 428.964 145.431 431.559 143.611C434.184 141.762 435.735 139.226 436.212 136.004C436.6 133.648 436.391 131.619 435.586 129.919C434.781 128.189 433.438 126.862 431.559 125.937C429.68 124.982 427.308 124.505 424.445 124.505H410.35L406.86 146.34ZM412.811 110.232H425.116C427.502 110.232 429.695 109.829 431.693 109.024C433.722 108.218 435.392 107.055 436.705 105.534C438.047 104.012 438.882 102.178 439.21 100.03C439.717 96.9576 439.016 94.5414 437.107 92.7814C435.198 91.0215 432.409 90.1415 428.74 90.1415H416.122L412.811 110.232ZM474.513 90.5442L477.556 72.557H555.009L551.966 90.5442H524.18L512.009 164.193H490.174L502.344 90.5442H474.513Z" fill="white"/>
</svg>
