<svg width="221" height="65" viewBox="0 0 221 65" fill="none" xmlns="http://www.w3.org/2000/svg">
<g filter="url(#filter0_d_150_119)">
<path d="M5.31641 0.794922L5.31641 28.2384L31.1678 56.0746L215.747 56.0747L215.747 28.6525L185.824 0.794935L5.31641 0.794922Z" fill="url(#paint0_linear_150_119)" stroke="black"/>
<g filter="url(#filter1_d_150_119)">
<path d="M48.7896 36.3647V20.3647H54.6489C55.7843 20.3647 56.7244 20.5522 57.4692 20.9272C58.214 21.297 58.7713 21.7996 59.1411 22.4351C59.5109 23.0653 59.6958 23.7762 59.6958 24.5679C59.6958 25.2345 59.5734 25.797 59.3286 26.2554C59.0838 26.7085 58.7557 27.0731 58.3442 27.3491C57.938 27.62 57.4901 27.8179 57.0005 27.9429V28.0991C57.5317 28.1252 58.05 28.297 58.5552 28.6147C59.0656 28.9272 59.4875 29.3726 59.8208 29.9507C60.1541 30.5288 60.3208 31.2319 60.3208 32.0601C60.3208 32.8778 60.1281 33.6121 59.7427 34.2632C59.3625 34.909 58.7739 35.422 57.9771 35.8022C57.1802 36.1772 56.1619 36.3647 54.9224 36.3647H48.7896ZM51.2036 34.2944H54.688C55.8442 34.2944 56.6724 34.0705 57.1724 33.6226C57.6724 33.1746 57.9224 32.6147 57.9224 31.9429C57.9224 31.4377 57.7948 30.9741 57.5396 30.5522C57.2843 30.1304 56.9198 29.7944 56.4458 29.5444C55.9771 29.2944 55.4198 29.1694 54.7739 29.1694H51.2036V34.2944ZM51.2036 27.2866H54.438C54.9797 27.2866 55.4666 27.1825 55.8989 26.9741C56.3364 26.7658 56.6828 26.4741 56.938 26.0991C57.1984 25.7189 57.3286 25.271 57.3286 24.7554C57.3286 24.0939 57.0968 23.5392 56.6333 23.0913C56.1698 22.6434 55.4588 22.4194 54.5005 22.4194H51.2036V27.2866ZM73.4731 20.3647H75.895V30.8882C75.895 32.008 75.632 33.0002 75.106 33.8647C74.5799 34.7241 73.8403 35.4012 72.8872 35.896C71.9341 36.3856 70.8169 36.6304 69.5356 36.6304C68.2596 36.6304 67.145 36.3856 66.1919 35.896C65.2388 35.4012 64.4992 34.7241 63.9731 33.8647C63.4471 33.0002 63.1841 32.008 63.1841 30.8882V20.3647H65.5981V30.6929C65.5981 31.4168 65.757 32.0601 66.0747 32.6226C66.3976 33.1851 66.8534 33.6278 67.4419 33.9507C68.0304 34.2684 68.7284 34.4272 69.5356 34.4272C70.3481 34.4272 71.0487 34.2684 71.6372 33.9507C72.231 33.6278 72.6841 33.1851 72.9966 32.6226C73.3143 32.0601 73.4731 31.4168 73.4731 30.6929V20.3647ZM78.1704 20.3647H80.9126L85.0923 27.6382H85.2642L89.4438 20.3647H92.186L86.3813 30.0835V36.3647H83.9751V30.0835L78.1704 20.3647ZM105.006 38.3647V18.3647H106.288V38.3647H105.006ZM109.014 24.5679C108.931 23.8283 108.587 23.2554 107.983 22.8491C107.379 22.4377 106.618 22.2319 105.702 22.2319C105.045 22.2319 104.478 22.3361 103.999 22.5444C103.519 22.7476 103.147 23.0288 102.881 23.3882C102.621 23.7423 102.491 24.146 102.491 24.5991C102.491 24.9793 102.579 25.3075 102.756 25.5835C102.939 25.8595 103.176 26.0913 103.467 26.2788C103.764 26.4611 104.082 26.6147 104.42 26.7397C104.759 26.8595 105.084 26.9585 105.397 27.0366L106.959 27.4429C107.47 27.5679 107.993 27.7371 108.53 27.9507C109.066 28.1642 109.564 28.4455 110.022 28.7944C110.48 29.1434 110.85 29.5757 111.131 30.0913C111.418 30.6069 111.561 31.2241 111.561 31.9429C111.561 32.8491 111.327 33.6538 110.858 34.3569C110.394 35.0601 109.72 35.6147 108.834 36.021C107.954 36.4272 106.889 36.6304 105.639 36.6304C104.441 36.6304 103.405 36.4403 102.53 36.0601C101.655 35.6799 100.97 35.1408 100.475 34.4429C99.9803 33.7397 99.7069 32.9064 99.6548 31.9429H102.077C102.124 32.521 102.311 33.0028 102.639 33.3882C102.972 33.7684 103.397 34.0522 103.913 34.2397C104.433 34.422 105.004 34.5132 105.624 34.5132C106.306 34.5132 106.913 34.4064 107.444 34.1929C107.98 33.9741 108.402 33.672 108.709 33.2866C109.017 32.896 109.17 32.4403 109.17 31.9194C109.17 31.4455 109.035 31.0575 108.764 30.7554C108.499 30.4533 108.137 30.2033 107.678 30.0054C107.225 29.8075 106.712 29.633 106.139 29.4819L104.249 28.9663C102.967 28.6173 101.952 28.1043 101.202 27.4272C100.457 26.7502 100.084 25.8543 100.084 24.7397C100.084 23.8179 100.334 23.0132 100.834 22.3257C101.334 21.6382 102.012 21.1043 102.866 20.7241C103.72 20.3387 104.683 20.146 105.756 20.146C106.84 20.146 107.795 20.3361 108.624 20.7163C109.457 21.0965 110.113 21.62 110.592 22.2866C111.071 22.9481 111.321 23.7085 111.342 24.5679H109.014ZM114.446 20.3647H117.375L122.469 32.8022H122.657L127.75 20.3647H130.68V36.3647H128.383V24.7866H128.235L123.516 36.3413H121.61L116.891 24.7788H116.743V36.3647H114.446V20.3647ZM135.542 36.3647H132.979L138.737 20.3647H141.526L147.284 36.3647H144.721L140.198 23.271H140.073L135.542 36.3647ZM135.971 30.0991H144.284V32.1304H135.971V30.0991ZM149.594 20.3647H152.524L157.618 32.8022H157.805L162.899 20.3647H165.829V36.3647H163.532V24.7866H163.383L158.665 36.3413H156.758L152.04 24.7788H151.891V36.3647H149.594V20.3647ZM171.752 20.3647V36.3647H169.338V20.3647H171.752Z" fill="black"/>
</g>
</g>
<defs>
<filter id="filter0_d_150_119" x="0.816406" y="0.294922" width="219.43" height="64.2798" filterUnits="userSpaceOnUse" color-interpolation-filters="sRGB">
<feFlood flood-opacity="0" result="BackgroundImageFix"/>
<feColorMatrix in="SourceAlpha" type="matrix" values="0 0 0 0 0 0 0 0 0 0 0 0 0 0 0 0 0 0 127 0" result="hardAlpha"/>
<feOffset dy="4"/>
<feGaussianBlur stdDeviation="2"/>
<feComposite in2="hardAlpha" operator="out"/>
<feColorMatrix type="matrix" values="0 0 0 0 0 0 0 0 0 0 0 0 0 0 0 0 0 0 0.25 0"/>
<feBlend mode="normal" in2="BackgroundImageFix" result="effect1_dropShadow_150_119"/>
<feBlend mode="normal" in="SourceGraphic" in2="effect1_dropShadow_150_119" result="shape"/>
</filter>
<filter id="filter1_d_150_119" x="46.7896" y="15.3647" width="124.963" height="23" filterUnits="userSpaceOnUse" color-interpolation-filters="sRGB">
<feFlood flood-opacity="0" result="BackgroundImageFix"/>
<feColorMatrix in="SourceAlpha" type="matrix" values="0 0 0 0 0 0 0 0 0 0 0 0 0 0 0 0 0 0 127 0" result="hardAlpha"/>
<feOffset dx="-2" dy="-3"/>
<feComposite in2="hardAlpha" operator="out"/>
<feColorMatrix type="matrix" values="0 0 0 0 1 0 0 0 0 1 0 0 0 0 1 0 0 0 1 0"/>
<feBlend mode="normal" in2="BackgroundImageFix" result="effect1_dropShadow_150_119"/>
<feBlend mode="normal" in="SourceGraphic" in2="effect1_dropShadow_150_119" result="shape"/>
</filter>
<linearGradient id="paint0_linear_150_119" x1="31.5795" y1="-24.5866" x2="244.1" y2="65.5108" gradientUnits="userSpaceOnUse">
<stop stop-color="#7AE6CC"/>
<stop offset="1" stop-color="#B1FEEB"/>
</linearGradient>
</defs>
</svg>
