<svg width="348" height="75" viewBox="0 0 348 75" fill="none" xmlns="http://www.w3.org/2000/svg">
<g filter="url(#filter0_d_190_3)">
<path d="M0 4.65567e-05L-1.33761e-06 32L29.7182 64L338 64L338 32L303.627 7.29543e-06L0 4.65567e-05Z" fill="url(#paint0_linear_190_3)"/>
<path d="M303.43 0.500007L0.5 0.500047L0.499999 31.8036L29.9362 63.5L337.5 63.5L337.5 32.2177L303.43 0.500007Z" stroke="black"/>
</g>
<g filter="url(#filter1_d_190_3)">
<path d="M68.7827 28.2401H65.902C65.7912 27.6245 65.585 27.0829 65.2834 26.6151C64.9818 26.1473 64.6125 25.7502 64.1754 25.424C63.7384 25.0978 63.2491 24.8516 62.7074 24.6854C62.1719 24.5192 61.6025 24.4361 60.9993 24.4361C59.9098 24.4361 58.9342 24.71 58.0724 25.2578C57.2169 25.8056 56.5398 26.6089 56.0412 27.6676C55.5488 28.7263 55.3026 30.0189 55.3026 31.5455C55.3026 33.0843 55.5488 34.383 56.0412 35.4418C56.5398 36.5005 57.2199 37.3007 58.0817 37.8423C58.9434 38.384 59.9129 38.6548 60.9901 38.6548C61.5871 38.6548 62.1534 38.5748 62.6889 38.4148C63.2306 38.2486 63.7199 38.0054 64.157 37.6854C64.594 37.3653 64.9633 36.9744 65.2649 36.5128C65.5727 36.045 65.785 35.5095 65.902 34.9062L68.7827 34.9155C68.6288 35.8449 68.3303 36.7005 67.8871 37.4822C67.45 38.2578 66.8868 38.9287 66.1974 39.495C65.5142 40.0552 64.7325 40.4891 63.8523 40.7969C62.9721 41.1046 62.0118 41.2585 60.9716 41.2585C59.3343 41.2585 57.8755 40.8707 56.5952 40.0952C55.3149 39.3134 54.3054 38.1963 53.5668 36.7436C52.8343 35.291 52.468 33.5582 52.468 31.5455C52.468 29.5265 52.8374 27.7938 53.576 26.3473C54.3146 24.8946 55.3241 23.7805 56.6044 23.005C57.8847 22.2232 59.3404 21.8324 60.9716 21.8324C61.9749 21.8324 62.9105 21.977 63.7784 22.2663C64.6525 22.5495 65.4373 22.968 66.1328 23.522C66.8284 24.0698 67.4039 24.7408 67.8594 25.5348C68.3149 26.3227 68.6226 27.2244 68.7827 28.2401ZM88.622 31.5455C88.622 33.5644 88.2527 35.3002 87.514 36.7528C86.7754 38.1993 85.7628 39.3134 84.4764 40.0952C83.1961 40.8707 81.7404 41.2585 80.1092 41.2585C78.4719 41.2585 77.01 40.8707 75.7235 40.0952C74.4432 39.3134 73.4338 38.1963 72.6951 36.7436C71.9565 35.291 71.5872 33.5582 71.5872 31.5455C71.5872 29.5265 71.9565 27.7938 72.6951 26.3473C73.4338 24.8946 74.4432 23.7805 75.7235 23.005C77.01 22.2232 78.4719 21.8324 80.1092 21.8324C81.7404 21.8324 83.1961 22.2232 84.4764 23.005C85.7628 23.7805 86.7754 24.8946 87.514 26.3473C88.2527 27.7938 88.622 29.5265 88.622 31.5455ZM85.7967 31.5455C85.7967 30.0066 85.5474 28.7109 85.0488 27.6584C84.5564 26.5997 83.8793 25.7995 83.0176 25.2578C82.162 24.71 81.1925 24.4361 80.1092 24.4361C79.0197 24.4361 78.0472 24.71 77.1916 25.2578C76.336 25.7995 75.6589 26.5997 75.1603 27.6584C74.6679 28.7109 74.4217 30.0066 74.4217 31.5455C74.4217 33.0843 74.6679 34.383 75.1603 35.4418C75.6589 36.4943 76.336 37.2945 77.1916 37.8423C78.0472 38.384 79.0197 38.6548 80.1092 38.6548C81.1925 38.6548 82.162 38.384 83.0176 37.8423C83.8793 37.2945 84.5564 36.4943 85.0488 35.4418C85.5474 34.383 85.7967 33.0843 85.7967 31.5455ZM92.179 22.0909H95.6413L101.661 36.7898H101.883L107.903 22.0909H111.365V41H108.651V27.3168H108.475L102.898 40.9723H100.646L95.0689 27.3075H94.8935V41H92.179V22.0909ZM115.513 41V22.0909H127.368V24.5469H118.366V30.3082H126.749V32.755H118.366V38.544H127.479V41H115.513ZM139.657 41H136.629L143.433 22.0909H146.73L153.534 41H150.506L145.16 25.5256H145.012L139.657 41ZM140.165 33.5952H149.989V35.9957H140.165V33.5952ZM171.527 22.0909V41H168.905L159.293 27.1321H159.118V41H156.265V22.0909H158.906L168.526 35.9773H168.702V22.0909H171.527ZM181.81 41H175.689V22.0909H182.004C183.857 22.0909 185.448 22.4695 186.778 23.2266C188.107 23.9775 189.126 25.0578 189.834 26.4673C190.548 27.8707 190.905 29.5542 190.905 31.5178C190.905 33.4875 190.545 35.1802 189.824 36.5959C189.11 38.0116 188.076 39.1011 186.722 39.8643C185.368 40.6214 183.731 41 181.81 41ZM178.542 38.5071H181.653C183.094 38.5071 184.291 38.2363 185.245 37.6946C186.199 37.1468 186.913 36.3558 187.387 35.3217C187.861 34.2815 188.098 33.0135 188.098 31.5178C188.098 30.0343 187.861 28.7756 187.387 27.7415C186.919 26.7074 186.22 25.9226 185.291 25.3871C184.362 24.8516 183.207 24.5838 181.829 24.5838H178.542V38.5071ZM214.13 28.0646C213.952 27.5045 213.712 27.0028 213.41 26.5597C213.115 26.1103 212.761 25.7287 212.348 25.4148C211.936 25.0947 211.465 24.8516 210.936 24.6854C210.412 24.5192 209.837 24.4361 209.209 24.4361C208.144 24.4361 207.184 24.71 206.328 25.2578C205.473 25.8056 204.796 26.6089 204.297 27.6676C203.805 28.7202 203.558 30.0097 203.558 31.5362C203.558 33.0689 203.808 34.3646 204.306 35.4233C204.805 36.482 205.488 37.2853 206.356 37.8331C207.224 38.3809 208.212 38.6548 209.32 38.6548C210.348 38.6548 211.243 38.4455 212.007 38.027C212.776 37.6084 213.37 37.0175 213.789 36.2543C214.213 35.4848 214.426 34.58 214.426 33.5398L215.164 33.6783H209.754V31.3239H217.186V33.4751C217.186 35.0632 216.848 36.442 216.171 37.6115C215.5 38.7749 214.57 39.6735 213.382 40.3075C212.2 40.9415 210.846 41.2585 209.32 41.2585C207.609 41.2585 206.107 40.8646 204.814 40.0767C203.528 39.2888 202.524 38.1716 201.804 36.7251C201.084 35.2725 200.724 33.549 200.724 31.5547C200.724 30.0466 200.933 28.6925 201.352 27.4922C201.77 26.2919 202.358 25.2732 203.115 24.4361C203.878 23.5928 204.774 22.9496 205.802 22.5064C206.836 22.0571 207.966 21.8324 209.191 21.8324C210.212 21.8324 211.163 21.9832 212.044 22.2848C212.93 22.5864 213.718 23.0142 214.407 23.5682C215.103 24.1222 215.678 24.7808 216.134 25.544C216.589 26.3011 216.897 27.1413 217.057 28.0646H214.13ZM220.808 41V22.0909H232.663V24.5469H223.661V30.3082H232.044V32.755H223.661V38.544H232.774V41H220.808ZM235.541 24.5469V22.0909H250.176V24.5469H244.276V41H241.432V24.5469H235.541ZM263.143 22.0909V41H260.29V22.0909H263.143ZM266.366 24.5469V22.0909H281V24.5469H275.1V41H272.256V24.5469H266.366Z" fill="black"/>
</g>
<defs>
<filter id="filter0_d_190_3" x="0" y="0" width="347.9" height="74.9" filterUnits="userSpaceOnUse" color-interpolation-filters="sRGB">
<feFlood flood-opacity="0" result="BackgroundImageFix"/>
<feColorMatrix in="SourceAlpha" type="matrix" values="0 0 0 0 0 0 0 0 0 0 0 0 0 0 0 0 0 0 127 0" result="hardAlpha"/>
<feOffset dx="8" dy="9"/>
<feGaussianBlur stdDeviation="0.95"/>
<feComposite in2="hardAlpha" operator="out"/>
<feColorMatrix type="matrix" values="0 0 0 0 0 0 0 0 0 0 0 0 0 0 0 0 0 0 0.25 0"/>
<feBlend mode="normal" in2="BackgroundImageFix" result="effect1_dropShadow_190_3"/>
<feBlend mode="normal" in="SourceGraphic" in2="effect1_dropShadow_190_3" result="shape"/>
</filter>
<filter id="filter1_d_190_3" x="50.468" y="18.832" width="230.532" height="22.4268" filterUnits="userSpaceOnUse" color-interpolation-filters="sRGB">
<feFlood flood-opacity="0" result="BackgroundImageFix"/>
<feColorMatrix in="SourceAlpha" type="matrix" values="0 0 0 0 0 0 0 0 0 0 0 0 0 0 0 0 0 0 127 0" result="hardAlpha"/>
<feOffset dx="-2" dy="-3"/>
<feComposite in2="hardAlpha" operator="out"/>
<feColorMatrix type="matrix" values="0 0 0 0 1 0 0 0 0 1 0 0 0 0 1 0 0 0 1 0"/>
<feBlend mode="normal" in2="BackgroundImageFix" result="effect1_dropShadow_190_3"/>
<feBlend mode="normal" in="SourceGraphic" in2="effect1_dropShadow_190_3" result="shape"/>
</filter>
<linearGradient id="paint0_linear_190_3" x1="30.4343" y1="-28.2947" x2="272.107" y2="74.162" gradientUnits="userSpaceOnUse">
<stop stop-color="#7AE6CC"/>
<stop offset="1" stop-color="#B1FEEB"/>
</linearGradient>
</defs>
</svg>
