<svg width="785" height="359" viewBox="0 0 785 359" fill="none" xmlns="http://www.w3.org/2000/svg">
<g filter="url(#filter0_d_281_327)">
<path d="M5.76747 340.887L5.09126 344.96H9.22021H55.1456H58.114L58.5986 342.031L72.9628 255.231H158.345H161.306L161.797 252.311L168.16 214.446L168.846 210.366H164.709H80.4787L87.8162 165.607H182.74H185.7L186.191 162.687L192.555 124.823L193.241 120.743H189.103H45.2817H42.3148L41.829 123.669L5.76747 340.887ZM194.247 344.96H196.425L197.387 343.006L220.815 295.429H294.074L301.414 342.005L301.88 344.96H304.871H354.085H358.266L357.53 340.844L318.711 123.627L318.195 120.743H315.266H256.082H253.941L252.966 122.649L141.918 339.867L139.314 344.96H145.034H194.247ZM276.312 182.723L287.321 252.579H241.914L276.312 182.723ZM601.43 124.816L602.106 120.743H597.977H552.264H549.295L548.811 123.672L527.495 252.568L459.698 122.624L458.716 120.743H456.595H416.291H413.324L412.838 123.669L376.776 340.887L376.1 344.96H380.229H426.155H429.119L429.607 342.036L451.105 213.148L519.147 343.084L520.13 344.96H522.248H561.915H564.882L565.368 342.033L601.43 124.816ZM685.299 124.816L685.975 120.743H681.846H635.921H632.954L632.468 123.669L596.407 340.887L595.731 344.96H599.86H645.785H648.752L649.238 342.033L685.299 124.816Z" fill="white" stroke="#C495F7" stroke-width="7"/>
<path d="M666.973 289.287L665.014 288.049L665.389 285.762L668.246 268.336L669.121 262.994L673.634 265.986L706.505 287.781L746.921 265.25L753.251 261.721L752.079 268.873L749.055 287.322L748.775 289.026L747.253 289.841L723.2 302.724L742.372 315.086L744.3 316.329L743.929 318.593L741.001 336.457L740.12 341.829L735.598 338.799L702.743 316.783L662.444 338.614L656.169 342.014L657.323 334.971L660.335 316.595L660.616 314.885L662.146 314.071L686.064 301.351L666.973 289.287Z" fill="white" stroke="#C495F7" stroke-width="7"/>
<path d="M707.651 120.964L711.788 120.923L711.142 125.01L708.165 143.86L767.488 143.418L771.616 143.388L770.972 147.464L768.5 163.115L768.037 166.046L765.069 166.068L704.586 166.519L701.428 186.514L700.966 189.439L698.006 189.468L684.605 189.6L680.468 189.641L681.113 185.554L690.827 124.05L691.289 121.125L694.25 121.096L707.651 120.964Z" fill="white" stroke="#C495F7" stroke-width="7"/>
<path d="M673.265 257.061L669.137 257.109L669.765 253.029L674.764 220.552C675.696 214.499 677.504 209.221 680.292 204.826C683.031 200.49 686.428 197.081 690.513 194.72L690.525 194.714C694.603 192.378 699.035 191.18 703.762 191.126L703.762 191.126C708.067 191.077 711.948 191.925 715.195 193.91C718.292 195.804 720.633 198.366 722.075 201.587C722.141 201.733 722.206 201.88 722.269 202.028C722.329 201.957 722.389 201.886 722.45 201.816C724.544 199.38 727.045 197.443 729.928 196.02C732.908 194.526 736.184 193.771 739.696 193.699L739.706 193.699L739.717 193.699C744.198 193.634 748.243 194.657 751.651 196.966C755.171 199.337 757.514 202.868 758.821 207.232C760.149 211.626 760.231 216.851 759.324 222.74L754.639 253.175L754.188 256.108L751.221 256.143L673.265 257.061ZM694.656 224.716L693.266 233.747L706.873 233.618L708.488 223.122C708.834 220.876 708.679 219.259 708.274 218.113L708.271 218.103L708.267 218.093C707.844 216.872 707.224 216.126 706.458 215.632L706.44 215.62L706.421 215.608C705.609 215.07 704.497 214.707 702.902 214.702C700.918 214.729 699.286 215.413 697.835 216.857C696.484 218.202 695.284 220.635 694.656 224.716ZM730.841 217.98L730.836 217.982C729.728 218.66 728.76 219.62 727.944 220.945C727.151 222.256 726.604 223.769 726.333 225.527L725.127 233.361L737.33 233.222L738.753 223.981C739.225 220.912 738.722 219.282 738.081 218.421L738.065 218.4L738.05 218.379C737.445 217.541 736.504 216.94 734.556 216.952C733.133 216.964 731.922 217.316 730.841 217.98Z" fill="white" stroke="#C495F7" stroke-width="7"/>
<path d="M668.361 21.9117L665.467 11.5359L661.71 21.6313L652.291 46.9391L625.311 45.8018L614.549 45.3482L622.989 52.0411L644.148 68.8195L634.729 94.1274L630.972 104.223L639.945 98.2639L662.441 83.3256L683.599 100.104L692.04 106.797L689.145 96.4212L681.89 70.4105L704.385 55.4723L713.359 49.5134L702.597 49.0597L675.617 47.9224L668.361 21.9117Z" fill="white" stroke="#C495F7" stroke-width="7"/>
</g>
<defs>
<filter id="filter0_d_281_327" x="0.962402" y="0.219727" width="783.754" height="355.271" filterUnits="userSpaceOnUse" color-interpolation-filters="sRGB">
<feFlood flood-opacity="0" result="BackgroundImageFix"/>
<feColorMatrix in="SourceAlpha" type="matrix" values="0 0 0 0 0 0 0 0 0 0 0 0 0 0 0 0 0 0 127 0" result="hardAlpha"/>
<feOffset dx="9" dy="7"/>
<feComposite in2="hardAlpha" operator="out"/>
<feColorMatrix type="matrix" values="0 0 0 0 0.0235294 0 0 0 0 0.807843 0 0 0 0 0.768627 0 0 0 1 0"/>
<feBlend mode="normal" in2="BackgroundImageFix" result="effect1_dropShadow_281_327"/>
<feBlend mode="normal" in="SourceGraphic" in2="effect1_dropShadow_281_327" result="shape"/>
</filter>
</defs>
</svg>
