<svg width="1161" height="181" viewBox="0 0 1161 181" fill="none" xmlns="http://www.w3.org/2000/svg">
<mask id="path-1-outside-1_145_2" maskUnits="userSpaceOnUse" x="38" y="0" width="1123" height="130" fill="black">
<rect fill="white" x="38" width="1123" height="130"/>
<path d="M41 126.323L61.3893 3.67681H91.0738L82.918 52.903H131.313L139.468 3.67681H169.093L148.704 126.323H119.079L127.235 77.0371H78.8402L70.6844 126.323H41Z"/>
<path d="M293.138 66.9164C290.899 80.1312 286.501 91.2899 279.945 100.393C273.428 109.455 265.492 116.322 256.137 120.993C246.822 125.664 236.807 128 226.093 128C214.779 128 204.984 125.485 196.708 120.454C188.433 115.424 182.416 108.098 178.658 98.4762C174.94 88.8546 174.22 77.1768 176.499 63.443C178.658 50.2281 182.996 39.0494 189.512 29.9068C196.069 20.7643 204.045 13.8375 213.44 9.12642C222.875 4.37547 232.989 2 243.784 2C255.018 2 264.753 4.53517 272.988 9.60551C281.264 14.6759 287.261 22.0418 290.979 31.7034C294.697 41.365 295.417 53.1027 293.138 66.9164ZM263.453 63.443C264.693 55.7376 264.693 49.25 263.453 43.98C262.254 38.7101 259.895 34.7376 256.377 32.0627C252.859 29.3479 248.281 27.9905 242.644 27.9905C236.408 27.9905 230.771 29.5276 225.733 32.6017C220.736 35.6359 216.558 40.0675 213.2 45.8964C209.841 51.6854 207.503 58.692 206.183 66.9164C204.824 74.7015 204.784 81.1892 206.063 86.3793C207.383 91.5694 209.841 95.4819 213.44 98.1169C217.038 100.712 221.615 102.01 227.172 102.01C233.369 102.01 238.946 100.512 243.904 97.5181C248.861 94.5238 252.999 90.1521 256.317 84.403C259.675 78.654 262.054 71.6673 263.453 63.443Z"/>
<path d="M323.917 126.323L308.565 3.67681H341.368L346.645 84.0437H347.664L382.086 3.67681H408.832L416.748 84.2234H417.708L449.611 3.67681H482.354L426.283 126.323H397.678L388.023 51.9449H387.064L352.462 126.323H323.917Z"/>
<path d="M522.802 27.751L526.88 3.67681H630.686L626.608 27.751H589.368L573.056 126.323H543.791L560.103 27.751H522.802Z"/>
<path d="M745.001 66.9164C742.762 80.1312 738.364 91.2899 731.808 100.393C725.291 109.455 717.355 116.322 708 120.993C698.685 125.664 688.67 128 677.956 128C666.642 128 656.847 125.485 648.571 120.454C640.296 115.424 634.279 108.098 630.521 98.4762C626.803 88.8546 626.083 77.1768 628.362 63.443C630.521 50.2281 634.859 39.0494 641.375 29.9068C647.932 20.7643 655.908 13.8375 665.303 9.12642C674.738 4.37547 684.852 2 695.647 2C706.881 2 716.616 4.53517 724.852 9.60551C733.127 14.6759 739.124 22.0418 742.842 31.7034C746.56 41.365 747.28 53.1027 745.001 66.9164ZM715.317 63.443C716.556 55.7376 716.556 49.25 715.317 43.98C714.117 38.7101 711.758 34.7376 708.24 32.0627C704.722 29.3479 700.144 27.9905 694.507 27.9905C688.271 27.9905 682.634 29.5276 677.596 32.6017C672.599 35.6359 668.421 40.0675 665.063 45.8964C661.705 51.6854 659.366 58.692 658.047 66.9164C656.687 74.7015 656.647 81.1892 657.927 86.3793C659.246 91.5694 661.705 95.4819 665.303 98.1169C668.901 100.712 673.478 102.01 679.036 102.01C685.232 102.01 690.809 100.512 695.767 97.5181C700.724 94.5238 704.862 90.1521 708.18 84.403C711.539 78.654 713.917 71.6673 715.317 63.443Z"/>
<path d="M788.718 126.323L809.107 3.67681H860.32C869.516 3.67681 877.012 4.97433 882.809 7.56939C888.606 10.1644 892.684 13.7975 895.042 18.4686C897.441 23.1397 898.121 28.5494 897.081 34.6977C896.242 39.3289 894.523 43.481 891.924 47.154C889.365 50.7871 886.167 53.8213 882.329 56.2567C878.491 58.6521 874.253 60.3289 869.616 61.2871L869.376 62.4848C874.333 62.6844 878.711 64.0019 882.509 66.4373C886.347 68.8726 889.185 72.2861 891.024 76.6778C892.863 81.0295 893.283 86.1397 892.284 92.0086C891.204 98.596 888.546 104.485 884.308 109.675C880.11 114.825 874.573 118.897 867.697 121.892C860.82 124.846 852.864 126.323 843.829 126.323H788.718ZM822.48 102.429H840.831C847.187 102.429 852.105 101.211 855.583 98.7757C859.101 96.3004 861.18 92.9068 861.82 88.5951C862.339 85.4411 862.06 82.7262 860.98 80.4506C859.901 78.135 858.102 76.3584 855.583 75.1207C853.064 73.8432 849.886 73.2044 846.048 73.2044H827.158L822.48 102.429ZM830.456 54.1008H846.947C850.146 54.1008 853.084 53.5618 855.763 52.4838C858.482 51.4059 860.72 49.8489 862.479 47.8127C864.278 45.7766 865.398 43.3213 865.838 40.4468C866.517 36.3346 865.578 33.1008 863.019 30.7452C860.46 28.3897 856.722 27.212 851.805 27.212H834.894L830.456 54.1008Z"/>
<path d="M995.55 3.67681H1025.17L1012.04 82.7861C1010.52 91.9287 1007.02 99.8935 1001.55 106.681C996.109 113.428 989.173 118.658 980.737 122.371C972.302 126.044 962.907 127.88 952.552 127.88C942.158 127.88 933.382 126.044 926.226 122.371C919.07 118.658 913.892 113.428 910.694 106.681C907.496 99.8935 906.636 91.9287 908.115 82.7861L921.249 3.67681H950.933L938.16 80.211C937.48 84.443 937.8 88.2158 939.119 91.5295C940.478 94.8032 942.677 97.3983 945.716 99.3146C948.754 101.191 952.472 102.129 956.87 102.129C961.308 102.129 965.365 101.191 969.043 99.3146C972.722 97.3983 975.76 94.8032 978.159 91.5295C980.557 88.2158 982.097 84.443 982.776 80.211L995.55 3.67681Z"/>
<path d="M1037.66 3.67681H1070.83L1088.22 54.9991H1089.48L1123.84 3.67681H1157L1098.53 85.3612L1091.69 126.323H1062.19L1069.09 85.3612L1037.66 3.67681Z"/>
</mask>
<path d="M41 126.323L61.3893 3.67681H91.0738L82.918 52.903H131.313L139.468 3.67681H169.093L148.704 126.323H119.079L127.235 77.0371H78.8402L70.6844 126.323H41Z" fill="white"/>
<path d="M293.138 66.9164C290.899 80.1312 286.501 91.2899 279.945 100.393C273.428 109.455 265.492 116.322 256.137 120.993C246.822 125.664 236.807 128 226.093 128C214.779 128 204.984 125.485 196.708 120.454C188.433 115.424 182.416 108.098 178.658 98.4762C174.94 88.8546 174.22 77.1768 176.499 63.443C178.658 50.2281 182.996 39.0494 189.512 29.9068C196.069 20.7643 204.045 13.8375 213.44 9.12642C222.875 4.37547 232.989 2 243.784 2C255.018 2 264.753 4.53517 272.988 9.60551C281.264 14.6759 287.261 22.0418 290.979 31.7034C294.697 41.365 295.417 53.1027 293.138 66.9164ZM263.453 63.443C264.693 55.7376 264.693 49.25 263.453 43.98C262.254 38.7101 259.895 34.7376 256.377 32.0627C252.859 29.3479 248.281 27.9905 242.644 27.9905C236.408 27.9905 230.771 29.5276 225.733 32.6017C220.736 35.6359 216.558 40.0675 213.2 45.8964C209.841 51.6854 207.503 58.692 206.183 66.9164C204.824 74.7015 204.784 81.1892 206.063 86.3793C207.383 91.5694 209.841 95.4819 213.44 98.1169C217.038 100.712 221.615 102.01 227.172 102.01C233.369 102.01 238.946 100.512 243.904 97.5181C248.861 94.5238 252.999 90.1521 256.317 84.403C259.675 78.654 262.054 71.6673 263.453 63.443Z" fill="white"/>
<path d="M323.917 126.323L308.565 3.67681H341.368L346.645 84.0437H347.664L382.086 3.67681H408.832L416.748 84.2234H417.708L449.611 3.67681H482.354L426.283 126.323H397.678L388.023 51.9449H387.064L352.462 126.323H323.917Z" fill="white"/>
<path d="M522.802 27.751L526.88 3.67681H630.686L626.608 27.751H589.368L573.056 126.323H543.791L560.103 27.751H522.802Z" fill="white"/>
<path d="M745.001 66.9164C742.762 80.1312 738.364 91.2899 731.808 100.393C725.291 109.455 717.355 116.322 708 120.993C698.685 125.664 688.67 128 677.956 128C666.642 128 656.847 125.485 648.571 120.454C640.296 115.424 634.279 108.098 630.521 98.4762C626.803 88.8546 626.083 77.1768 628.362 63.443C630.521 50.2281 634.859 39.0494 641.375 29.9068C647.932 20.7643 655.908 13.8375 665.303 9.12642C674.738 4.37547 684.852 2 695.647 2C706.881 2 716.616 4.53517 724.852 9.60551C733.127 14.6759 739.124 22.0418 742.842 31.7034C746.56 41.365 747.28 53.1027 745.001 66.9164ZM715.317 63.443C716.556 55.7376 716.556 49.25 715.317 43.98C714.117 38.7101 711.758 34.7376 708.24 32.0627C704.722 29.3479 700.144 27.9905 694.507 27.9905C688.271 27.9905 682.634 29.5276 677.596 32.6017C672.599 35.6359 668.421 40.0675 665.063 45.8964C661.705 51.6854 659.366 58.692 658.047 66.9164C656.687 74.7015 656.647 81.1892 657.927 86.3793C659.246 91.5694 661.705 95.4819 665.303 98.1169C668.901 100.712 673.478 102.01 679.036 102.01C685.232 102.01 690.809 100.512 695.767 97.5181C700.724 94.5238 704.862 90.1521 708.18 84.403C711.539 78.654 713.917 71.6673 715.317 63.443Z" fill="white"/>
<path d="M788.718 126.323L809.107 3.67681H860.32C869.516 3.67681 877.012 4.97433 882.809 7.56939C888.606 10.1644 892.684 13.7975 895.042 18.4686C897.441 23.1397 898.121 28.5494 897.081 34.6977C896.242 39.3289 894.523 43.481 891.924 47.154C889.365 50.7871 886.167 53.8213 882.329 56.2567C878.491 58.6521 874.253 60.3289 869.616 61.2871L869.376 62.4848C874.333 62.6844 878.711 64.0019 882.509 66.4373C886.347 68.8726 889.185 72.2861 891.024 76.6778C892.863 81.0295 893.283 86.1397 892.284 92.0086C891.204 98.596 888.546 104.485 884.308 109.675C880.11 114.825 874.573 118.897 867.697 121.892C860.82 124.846 852.864 126.323 843.829 126.323H788.718ZM822.48 102.429H840.831C847.187 102.429 852.105 101.211 855.583 98.7757C859.101 96.3004 861.18 92.9068 861.82 88.5951C862.339 85.4411 862.06 82.7262 860.98 80.4506C859.901 78.135 858.102 76.3584 855.583 75.1207C853.064 73.8432 849.886 73.2044 846.048 73.2044H827.158L822.48 102.429ZM830.456 54.1008H846.947C850.146 54.1008 853.084 53.5618 855.763 52.4838C858.482 51.4059 860.72 49.8489 862.479 47.8127C864.278 45.7766 865.398 43.3213 865.838 40.4468C866.517 36.3346 865.578 33.1008 863.019 30.7452C860.46 28.3897 856.722 27.212 851.805 27.212H834.894L830.456 54.1008Z" fill="white"/>
<path d="M995.55 3.67681H1025.17L1012.04 82.7861C1010.52 91.9287 1007.02 99.8935 1001.55 106.681C996.109 113.428 989.173 118.658 980.737 122.371C972.302 126.044 962.907 127.88 952.552 127.88C942.158 127.88 933.382 126.044 926.226 122.371C919.07 118.658 913.892 113.428 910.694 106.681C907.496 99.8935 906.636 91.9287 908.115 82.7861L921.249 3.67681H950.933L938.16 80.211C937.48 84.443 937.8 88.2158 939.119 91.5295C940.478 94.8032 942.677 97.3983 945.716 99.3146C948.754 101.191 952.472 102.129 956.87 102.129C961.308 102.129 965.365 101.191 969.043 99.3146C972.722 97.3983 975.76 94.8032 978.159 91.5295C980.557 88.2158 982.097 84.443 982.776 80.211L995.55 3.67681Z" fill="white"/>
<path d="M1037.66 3.67681H1070.83L1088.22 54.9991H1089.48L1123.84 3.67681H1157L1098.53 85.3612L1091.69 126.323H1062.19L1069.09 85.3612L1037.66 3.67681Z" fill="white"/>
<path d="M41 126.323L61.3893 3.67681H91.0738L82.918 52.903H131.313L139.468 3.67681H169.093L148.704 126.323H119.079L127.235 77.0371H78.8402L70.6844 126.323H41Z" stroke="#1E1F27" stroke-width="4" mask="url(#path-1-outside-1_145_2)"/>
<path d="M293.138 66.9164C290.899 80.1312 286.501 91.2899 279.945 100.393C273.428 109.455 265.492 116.322 256.137 120.993C246.822 125.664 236.807 128 226.093 128C214.779 128 204.984 125.485 196.708 120.454C188.433 115.424 182.416 108.098 178.658 98.4762C174.94 88.8546 174.22 77.1768 176.499 63.443C178.658 50.2281 182.996 39.0494 189.512 29.9068C196.069 20.7643 204.045 13.8375 213.44 9.12642C222.875 4.37547 232.989 2 243.784 2C255.018 2 264.753 4.53517 272.988 9.60551C281.264 14.6759 287.261 22.0418 290.979 31.7034C294.697 41.365 295.417 53.1027 293.138 66.9164ZM263.453 63.443C264.693 55.7376 264.693 49.25 263.453 43.98C262.254 38.7101 259.895 34.7376 256.377 32.0627C252.859 29.3479 248.281 27.9905 242.644 27.9905C236.408 27.9905 230.771 29.5276 225.733 32.6017C220.736 35.6359 216.558 40.0675 213.2 45.8964C209.841 51.6854 207.503 58.692 206.183 66.9164C204.824 74.7015 204.784 81.1892 206.063 86.3793C207.383 91.5694 209.841 95.4819 213.44 98.1169C217.038 100.712 221.615 102.01 227.172 102.01C233.369 102.01 238.946 100.512 243.904 97.5181C248.861 94.5238 252.999 90.1521 256.317 84.403C259.675 78.654 262.054 71.6673 263.453 63.443Z" stroke="#1E1F27" stroke-width="4" mask="url(#path-1-outside-1_145_2)"/>
<path d="M323.917 126.323L308.565 3.67681H341.368L346.645 84.0437H347.664L382.086 3.67681H408.832L416.748 84.2234H417.708L449.611 3.67681H482.354L426.283 126.323H397.678L388.023 51.9449H387.064L352.462 126.323H323.917Z" stroke="#1E1F27" stroke-width="4" mask="url(#path-1-outside-1_145_2)"/>
<path d="M522.802 27.751L526.88 3.67681H630.686L626.608 27.751H589.368L573.056 126.323H543.791L560.103 27.751H522.802Z" stroke="#1E1F27" stroke-width="4" mask="url(#path-1-outside-1_145_2)"/>
<path d="M745.001 66.9164C742.762 80.1312 738.364 91.2899 731.808 100.393C725.291 109.455 717.355 116.322 708 120.993C698.685 125.664 688.67 128 677.956 128C666.642 128 656.847 125.485 648.571 120.454C640.296 115.424 634.279 108.098 630.521 98.4762C626.803 88.8546 626.083 77.1768 628.362 63.443C630.521 50.2281 634.859 39.0494 641.375 29.9068C647.932 20.7643 655.908 13.8375 665.303 9.12642C674.738 4.37547 684.852 2 695.647 2C706.881 2 716.616 4.53517 724.852 9.60551C733.127 14.6759 739.124 22.0418 742.842 31.7034C746.56 41.365 747.28 53.1027 745.001 66.9164ZM715.317 63.443C716.556 55.7376 716.556 49.25 715.317 43.98C714.117 38.7101 711.758 34.7376 708.24 32.0627C704.722 29.3479 700.144 27.9905 694.507 27.9905C688.271 27.9905 682.634 29.5276 677.596 32.6017C672.599 35.6359 668.421 40.0675 665.063 45.8964C661.705 51.6854 659.366 58.692 658.047 66.9164C656.687 74.7015 656.647 81.1892 657.927 86.3793C659.246 91.5694 661.705 95.4819 665.303 98.1169C668.901 100.712 673.478 102.01 679.036 102.01C685.232 102.01 690.809 100.512 695.767 97.5181C700.724 94.5238 704.862 90.1521 708.18 84.403C711.539 78.654 713.917 71.6673 715.317 63.443Z" stroke="#1E1F27" stroke-width="4" mask="url(#path-1-outside-1_145_2)"/>
<path d="M788.718 126.323L809.107 3.67681H860.32C869.516 3.67681 877.012 4.97433 882.809 7.56939C888.606 10.1644 892.684 13.7975 895.042 18.4686C897.441 23.1397 898.121 28.5494 897.081 34.6977C896.242 39.3289 894.523 43.481 891.924 47.154C889.365 50.7871 886.167 53.8213 882.329 56.2567C878.491 58.6521 874.253 60.3289 869.616 61.2871L869.376 62.4848C874.333 62.6844 878.711 64.0019 882.509 66.4373C886.347 68.8726 889.185 72.2861 891.024 76.6778C892.863 81.0295 893.283 86.1397 892.284 92.0086C891.204 98.596 888.546 104.485 884.308 109.675C880.11 114.825 874.573 118.897 867.697 121.892C860.82 124.846 852.864 126.323 843.829 126.323H788.718ZM822.48 102.429H840.831C847.187 102.429 852.105 101.211 855.583 98.7757C859.101 96.3004 861.18 92.9068 861.82 88.5951C862.339 85.4411 862.06 82.7262 860.98 80.4506C859.901 78.135 858.102 76.3584 855.583 75.1207C853.064 73.8432 849.886 73.2044 846.048 73.2044H827.158L822.48 102.429ZM830.456 54.1008H846.947C850.146 54.1008 853.084 53.5618 855.763 52.4838C858.482 51.4059 860.72 49.8489 862.479 47.8127C864.278 45.7766 865.398 43.3213 865.838 40.4468C866.517 36.3346 865.578 33.1008 863.019 30.7452C860.46 28.3897 856.722 27.212 851.805 27.212H834.894L830.456 54.1008Z" stroke="#1E1F27" stroke-width="4" mask="url(#path-1-outside-1_145_2)"/>
<path d="M995.55 3.67681H1025.17L1012.04 82.7861C1010.52 91.9287 1007.02 99.8935 1001.55 106.681C996.109 113.428 989.173 118.658 980.737 122.371C972.302 126.044 962.907 127.88 952.552 127.88C942.158 127.88 933.382 126.044 926.226 122.371C919.07 118.658 913.892 113.428 910.694 106.681C907.496 99.8935 906.636 91.9287 908.115 82.7861L921.249 3.67681H950.933L938.16 80.211C937.48 84.443 937.8 88.2158 939.119 91.5295C940.478 94.8032 942.677 97.3983 945.716 99.3146C948.754 101.191 952.472 102.129 956.87 102.129C961.308 102.129 965.365 101.191 969.043 99.3146C972.722 97.3983 975.76 94.8032 978.159 91.5295C980.557 88.2158 982.097 84.443 982.776 80.211L995.55 3.67681Z" stroke="#1E1F27" stroke-width="4" mask="url(#path-1-outside-1_145_2)"/>
<path d="M1037.66 3.67681H1070.83L1088.22 54.9991H1089.48L1123.84 3.67681H1157L1098.53 85.3612L1091.69 126.323H1062.19L1069.09 85.3612L1037.66 3.67681Z" stroke="#1E1F27" stroke-width="4" mask="url(#path-1-outside-1_145_2)"/>
<path d="M1.2081 151L16.4212 59.3636H38.5696L32.4844 96.1435H68.593L74.6783 59.3636H96.782L81.5689 151H59.4652L65.5504 114.175H29.4418L23.3565 151H1.2081ZM189.336 106.614C187.665 116.487 184.384 124.825 179.492 131.626C174.63 138.397 168.708 143.528 161.728 147.018C154.778 150.508 147.306 152.253 139.311 152.253C130.87 152.253 123.561 150.374 117.387 146.615C111.212 142.857 106.723 137.383 103.919 130.194C101.145 123.005 100.608 114.28 102.308 104.018C103.919 94.1449 107.155 85.7926 112.017 78.9616C116.909 72.1307 122.86 66.9553 129.87 63.4354C136.91 59.8856 144.457 58.1108 152.511 58.1108C160.893 58.1108 168.157 60.005 174.301 63.7933C180.476 67.5817 184.951 73.0852 187.725 80.304C190.499 87.5227 191.036 96.2926 189.336 106.614ZM167.187 104.018C168.112 98.2614 168.112 93.4141 167.187 89.4766C166.292 85.5391 164.532 82.571 161.907 80.5724C159.282 78.544 155.867 77.5298 151.661 77.5298C147.007 77.5298 142.801 78.6783 139.043 80.9751C135.314 83.2422 132.197 86.5533 129.691 90.9084C127.186 95.2337 125.441 100.469 124.456 106.614C123.442 112.43 123.412 117.278 124.367 121.156C125.351 125.033 127.186 127.957 129.87 129.925C132.555 131.864 135.971 132.834 140.117 132.834C144.74 132.834 148.902 131.715 152.6 129.478C156.299 127.241 159.387 123.974 161.863 119.679C164.368 115.384 166.143 110.163 167.187 104.018ZM212.301 151L200.846 59.3636H225.321L229.259 119.411H230.019L255.703 59.3636H275.659L281.565 119.545H282.281L306.085 59.3636H330.515L288.679 151H267.336L260.132 95.4276H259.416L233.599 151H212.301ZM360.695 77.3509L363.738 59.3636H441.19L438.148 77.3509H410.361L398.191 151H376.356L388.526 77.3509H360.695ZM526.484 106.614C524.814 116.487 521.532 124.825 516.64 131.626C511.778 138.397 505.857 143.528 498.877 147.018C491.926 150.508 484.454 152.253 476.46 152.253C468.018 152.253 460.71 150.374 454.535 146.615C448.36 142.857 443.871 137.383 441.067 130.194C438.293 123.005 437.756 114.28 439.456 104.018C441.067 94.1449 444.304 85.7926 449.166 78.9616C454.058 72.1307 460.009 66.9553 467.019 63.4354C474.059 59.8856 481.605 58.1108 489.659 58.1108C498.042 58.1108 505.305 60.005 511.45 63.7933C517.625 67.5817 522.099 73.0852 524.873 80.304C527.647 87.5227 528.184 96.2926 526.484 106.614ZM504.336 104.018C505.26 98.2614 505.26 93.4141 504.336 89.4766C503.441 85.5391 501.681 82.571 499.056 80.5724C496.431 78.544 493.015 77.5298 488.809 77.5298C484.156 77.5298 479.95 78.6783 476.191 80.9751C472.463 83.2422 469.346 86.5533 466.84 90.9084C464.334 95.2337 462.589 100.469 461.605 106.614C460.591 112.43 460.561 117.278 461.515 121.156C462.5 125.033 464.334 127.957 467.019 129.925C469.703 131.864 473.119 132.834 477.265 132.834C481.889 132.834 486.05 131.715 489.749 129.478C493.448 127.241 496.535 123.974 499.011 119.679C501.517 115.384 503.292 110.163 504.336 104.018ZM559.103 151L574.316 59.3636H612.527C619.388 59.3636 624.981 60.3331 629.306 62.272C633.632 64.2109 636.674 66.9254 638.434 70.4155C640.224 73.9055 640.731 77.9474 639.956 82.5412C639.329 86.0014 638.047 89.1037 636.108 91.848C634.199 94.5625 631.812 96.8295 628.949 98.6491C626.085 100.439 622.923 101.692 619.463 102.408L619.284 103.303C622.983 103.452 626.249 104.436 629.083 106.256C631.946 108.075 634.064 110.626 635.436 113.907C636.809 117.158 637.122 120.977 636.376 125.362C635.571 130.283 633.587 134.683 630.425 138.561C627.293 142.409 623.162 145.452 618.031 147.689C612.9 149.896 606.964 151 600.223 151H559.103ZM584.294 133.147H597.985C602.728 133.147 606.397 132.237 608.993 130.418C611.618 128.568 613.169 126.033 613.646 122.811C614.034 120.455 613.825 118.426 613.02 116.726C612.214 114.996 610.872 113.668 608.993 112.744C607.113 111.789 604.742 111.312 601.878 111.312H587.784L584.294 133.147ZM590.245 97.0384H602.549C604.936 97.0384 607.128 96.6357 609.127 95.8303C611.155 95.0249 612.826 93.8615 614.138 92.3402C615.48 90.8189 616.316 88.9844 616.644 86.8366C617.151 83.7642 616.45 81.348 614.541 79.5881C612.632 77.8281 609.843 76.9482 606.174 76.9482H593.556L590.245 97.0384ZM713.426 59.3636H735.529L725.73 118.471C724.597 125.302 721.987 131.253 717.9 136.324C713.843 141.365 708.668 145.273 702.374 148.047C696.08 150.791 689.07 152.163 681.344 152.163C673.588 152.163 667.041 150.791 661.701 148.047C656.362 145.273 652.499 141.365 650.113 136.324C647.726 131.253 647.085 125.302 648.189 118.471L657.988 59.3636H680.136L670.605 116.547C670.098 119.709 670.337 122.528 671.321 125.004C672.336 127.45 673.976 129.388 676.243 130.82C678.51 132.222 681.284 132.923 684.566 132.923C687.877 132.923 690.904 132.222 693.649 130.82C696.393 129.388 698.66 127.45 700.45 125.004C702.24 122.528 703.388 119.709 703.895 116.547L713.426 59.3636ZM744.847 59.3636H769.591L782.567 97.7095H783.507L809.145 59.3636H833.889L790.263 120.395L785.162 151H763.148L768.294 120.395L744.847 59.3636Z" fill="#1E1F27"/>
</svg>
