<svg width="747" height="175" viewBox="0 0 747 175" fill="none" xmlns="http://www.w3.org/2000/svg">
<mask id="path-1-outside-1_156_2" maskUnits="userSpaceOnUse" x="0" y="0" width="747" height="135" fill="black">
<rect fill="white" width="747" height="135"/>
<path d="M24.1862 3.74335H62.3837L81.7006 82.692H83.1961L128.684 3.74335H166.882L145.695 131.257H115.661L128.684 52.9306H127.625L84.1308 130.447H65.0009L47.3041 52.4948H46.2448L33.0346 131.257H3L24.1862 3.74335Z"/>
<path d="M179.765 3.74335H214.224L232.294 57.1022H233.603L269.308 3.74335H303.766L243.012 88.6692L235.908 131.257H205.251L212.416 88.6692L179.765 3.74335Z"/>
<path d="M333.209 131.257L354.395 3.74335H407.112C416.666 3.74335 424.621 5.59046 430.977 9.2847C437.333 12.9789 441.84 18.1467 444.499 24.788C447.158 31.4293 447.76 39.1291 446.306 47.8874C444.894 56.7286 441.716 64.4284 436.772 70.9867C431.87 77.545 425.556 82.6298 417.829 86.241C410.103 89.8522 401.317 91.6578 391.471 91.6578H359.006L363.057 67.3755H389.851C394.545 67.3755 398.596 66.5661 402.002 64.9472C405.45 63.3284 408.212 61.0662 410.29 58.1606C412.367 55.2551 413.737 51.8306 414.402 47.8874C415.025 43.9441 414.776 40.5404 413.654 37.6763C412.533 34.7708 410.518 32.5293 407.61 30.952C404.744 29.3747 401.005 28.586 396.394 28.586H381.19L364.054 131.257H333.209Z"/>
<path d="M499.536 3.74335L478.35 131.257H447.506L468.692 3.74335H499.536Z"/>
<path d="M626.95 49.942H596.167C596.334 46.7044 596.022 43.8195 595.233 41.2875C594.443 38.714 593.197 36.5141 591.494 34.6877C589.791 32.8199 587.672 31.4086 585.138 30.4539C582.604 29.4992 579.655 29.0219 576.29 29.0219C569.851 29.0219 564.014 30.6199 558.78 33.8161C553.546 37.0122 549.163 41.6196 545.632 47.6383C542.101 53.657 539.629 60.8794 538.217 69.3056C536.929 77.4412 536.95 84.2278 538.279 89.6654C539.65 95.103 542.184 99.1915 545.881 101.931C549.579 104.629 554.273 105.978 559.964 105.978C563.661 105.978 567.088 105.542 570.245 104.671C573.444 103.757 576.331 102.45 578.907 100.748C581.482 99.0463 583.705 96.9916 585.574 94.5841C587.485 92.1351 588.96 89.4163 589.998 86.4278H621.03C619.493 92.0314 616.959 97.6142 613.428 103.176C609.938 108.697 605.535 113.699 600.218 118.182C594.9 122.664 588.732 126.255 581.711 128.953C574.69 131.651 566.881 133 558.281 133C546.525 133 536.389 130.364 527.873 125.093C519.399 119.821 513.271 112.184 509.491 102.18C505.752 92.1351 505.046 79.9732 507.372 65.6944C509.657 51.8722 514.164 40.2291 520.894 30.7652C527.665 21.3013 535.891 14.1412 545.57 9.2847C555.291 4.42823 565.655 2 576.664 2C584.64 2 591.806 3.07922 598.161 5.23765C604.559 7.35456 609.98 10.4677 614.425 14.577C618.87 18.6448 622.172 23.6466 624.333 29.5822C626.534 35.5179 627.407 42.3045 626.95 49.942Z"/>
<path d="M714.888 42.2215C715.22 37.5311 713.974 33.8991 711.149 31.3256C708.366 28.7521 703.963 27.4653 697.939 27.4653C693.951 27.4653 690.545 27.9842 687.72 29.0219C684.895 30.0181 682.673 31.4293 681.053 33.2557C679.432 35.0406 678.415 37.116 677.999 39.4819C677.625 41.3498 677.729 43.0101 678.311 44.4629C678.892 45.9157 679.91 47.2025 681.364 48.3232C682.86 49.4439 684.708 50.4194 686.91 51.2495C689.153 52.0797 691.666 52.8061 694.45 53.4287L704.918 55.9192C710.983 57.289 716.238 59.1153 720.683 61.3983C725.17 63.6397 728.805 66.3585 731.588 69.5547C734.371 72.7093 736.282 76.3412 737.321 80.4506C738.359 84.5599 738.442 89.1673 737.57 94.2728C736.241 102.325 733.063 109.237 728.036 115.006C723.051 120.776 716.529 125.196 708.47 128.268C700.452 131.34 691.126 132.875 680.492 132.875C669.857 132.875 660.822 131.277 653.386 128.081C645.991 124.844 640.633 119.966 637.309 113.45C633.986 106.933 633.093 98.7142 634.63 88.7937H664.104C663.647 92.903 664.166 96.3275 665.661 99.067C667.198 101.807 669.566 103.882 672.765 105.293C675.964 106.705 679.827 107.41 684.355 107.41C688.509 107.41 692.144 106.85 695.26 105.729C698.417 104.608 700.93 103.052 702.8 101.059C704.71 99.067 705.874 96.7841 706.289 94.2105C706.704 91.8446 706.31 89.7899 705.105 88.0466C703.942 86.3032 701.948 84.7882 699.123 83.5014C696.34 82.2147 692.684 81.0524 688.156 80.0147L675.382 76.9016C664.831 74.3281 656.834 70.2188 651.392 64.5737C645.991 58.9285 644.081 51.2703 645.659 41.5989C646.988 33.6708 650.27 26.7389 655.504 20.8032C660.78 14.8676 667.448 10.2601 675.507 6.98099C683.607 3.66033 692.518 2 702.239 2C712.126 2 720.434 3.68108 727.164 7.04325C733.935 10.3639 738.816 15.0543 741.807 21.1145C744.84 27.1332 745.712 34.1689 744.424 42.2215H714.888Z"/>
</mask>
<path d="M24.1862 3.74335H62.3837L81.7006 82.692H83.1961L128.684 3.74335H166.882L145.695 131.257H115.661L128.684 52.9306H127.625L84.1308 130.447H65.0009L47.3041 52.4948H46.2448L33.0346 131.257H3L24.1862 3.74335Z" stroke="white" stroke-width="4" mask="url(#path-1-outside-1_156_2)"/>
<path d="M179.765 3.74335H214.224L232.294 57.1022H233.603L269.308 3.74335H303.766L243.012 88.6692L235.908 131.257H205.251L212.416 88.6692L179.765 3.74335Z" stroke="white" stroke-width="4" mask="url(#path-1-outside-1_156_2)"/>
<path d="M333.209 131.257L354.395 3.74335H407.112C416.666 3.74335 424.621 5.59046 430.977 9.2847C437.333 12.9789 441.84 18.1467 444.499 24.788C447.158 31.4293 447.76 39.1291 446.306 47.8874C444.894 56.7286 441.716 64.4284 436.772 70.9867C431.87 77.545 425.556 82.6298 417.829 86.241C410.103 89.8522 401.317 91.6578 391.471 91.6578H359.006L363.057 67.3755H389.851C394.545 67.3755 398.596 66.5661 402.002 64.9472C405.45 63.3284 408.212 61.0662 410.29 58.1606C412.367 55.2551 413.737 51.8306 414.402 47.8874C415.025 43.9441 414.776 40.5404 413.654 37.6763C412.533 34.7708 410.518 32.5293 407.61 30.952C404.744 29.3747 401.005 28.586 396.394 28.586H381.19L364.054 131.257H333.209Z" stroke="white" stroke-width="4" mask="url(#path-1-outside-1_156_2)"/>
<path d="M499.536 3.74335L478.35 131.257H447.506L468.692 3.74335H499.536Z" stroke="white" stroke-width="4" mask="url(#path-1-outside-1_156_2)"/>
<path d="M626.95 49.942H596.167C596.334 46.7044 596.022 43.8195 595.233 41.2875C594.443 38.714 593.197 36.5141 591.494 34.6877C589.791 32.8199 587.672 31.4086 585.138 30.4539C582.604 29.4992 579.655 29.0219 576.29 29.0219C569.851 29.0219 564.014 30.6199 558.78 33.8161C553.546 37.0122 549.163 41.6196 545.632 47.6383C542.101 53.657 539.629 60.8794 538.217 69.3056C536.929 77.4412 536.95 84.2278 538.279 89.6654C539.65 95.103 542.184 99.1915 545.881 101.931C549.579 104.629 554.273 105.978 559.964 105.978C563.661 105.978 567.088 105.542 570.245 104.671C573.444 103.757 576.331 102.45 578.907 100.748C581.482 99.0463 583.705 96.9916 585.574 94.5841C587.485 92.1351 588.96 89.4163 589.998 86.4278H621.03C619.493 92.0314 616.959 97.6142 613.428 103.176C609.938 108.697 605.535 113.699 600.218 118.182C594.9 122.664 588.732 126.255 581.711 128.953C574.69 131.651 566.881 133 558.281 133C546.525 133 536.389 130.364 527.873 125.093C519.399 119.821 513.271 112.184 509.491 102.18C505.752 92.1351 505.046 79.9732 507.372 65.6944C509.657 51.8722 514.164 40.2291 520.894 30.7652C527.665 21.3013 535.891 14.1412 545.57 9.2847C555.291 4.42823 565.655 2 576.664 2C584.64 2 591.806 3.07922 598.161 5.23765C604.559 7.35456 609.98 10.4677 614.425 14.577C618.87 18.6448 622.172 23.6466 624.333 29.5822C626.534 35.5179 627.407 42.3045 626.95 49.942Z" stroke="white" stroke-width="4" mask="url(#path-1-outside-1_156_2)"/>
<path d="M714.888 42.2215C715.22 37.5311 713.974 33.8991 711.149 31.3256C708.366 28.7521 703.963 27.4653 697.939 27.4653C693.951 27.4653 690.545 27.9842 687.72 29.0219C684.895 30.0181 682.673 31.4293 681.053 33.2557C679.432 35.0406 678.415 37.116 677.999 39.4819C677.625 41.3498 677.729 43.0101 678.311 44.4629C678.892 45.9157 679.91 47.2025 681.364 48.3232C682.86 49.4439 684.708 50.4194 686.91 51.2495C689.153 52.0797 691.666 52.8061 694.45 53.4287L704.918 55.9192C710.983 57.289 716.238 59.1153 720.683 61.3983C725.17 63.6397 728.805 66.3585 731.588 69.5547C734.371 72.7093 736.282 76.3412 737.321 80.4506C738.359 84.5599 738.442 89.1673 737.57 94.2728C736.241 102.325 733.063 109.237 728.036 115.006C723.051 120.776 716.529 125.196 708.47 128.268C700.452 131.34 691.126 132.875 680.492 132.875C669.857 132.875 660.822 131.277 653.386 128.081C645.991 124.844 640.633 119.966 637.309 113.45C633.986 106.933 633.093 98.7142 634.63 88.7937H664.104C663.647 92.903 664.166 96.3275 665.661 99.067C667.198 101.807 669.566 103.882 672.765 105.293C675.964 106.705 679.827 107.41 684.355 107.41C688.509 107.41 692.144 106.85 695.26 105.729C698.417 104.608 700.93 103.052 702.8 101.059C704.71 99.067 705.874 96.7841 706.289 94.2105C706.704 91.8446 706.31 89.7899 705.105 88.0466C703.942 86.3032 701.948 84.7882 699.123 83.5014C696.34 82.2147 692.684 81.0524 688.156 80.0147L675.382 76.9016C664.831 74.3281 656.834 70.2188 651.392 64.5737C645.991 58.9285 644.081 51.2703 645.659 41.5989C646.988 33.6708 650.27 26.7389 655.504 20.8032C660.78 14.8676 667.448 10.2601 675.507 6.98099C683.607 3.66033 692.518 2 702.239 2C712.126 2 720.434 3.68108 727.164 7.04325C733.935 10.3639 738.816 15.0543 741.807 21.1145C744.84 27.1332 745.712 34.1689 744.424 42.2215H714.888Z" stroke="white" stroke-width="4" mask="url(#path-1-outside-1_156_2)"/>
<path d="M115.421 53.3636H142.849L156.72 110.099H157.794L190.457 53.3636H217.886L202.673 145H181.106L190.457 88.7116H189.697L158.465 144.418H144.729L132.021 88.3984H131.261L121.775 145H100.208L115.421 53.3636ZM227.137 53.3636H251.88L264.856 91.7095H265.796L291.434 53.3636H316.178L272.552 114.395L267.451 145H245.437L250.583 114.395L227.137 53.3636ZM337.319 145L352.532 53.3636H390.386C397.247 53.3636 402.959 54.691 407.523 57.3459C412.087 60.0007 415.324 63.7145 417.233 68.4872C419.142 73.2599 419.574 78.7933 418.53 85.0874C417.516 91.441 415.234 96.9744 411.684 101.688C408.165 106.401 403.631 110.055 398.082 112.65C392.534 115.245 386.225 116.543 379.155 116.543H355.844L358.752 99.0923H377.992C381.363 99.0923 384.271 98.5107 386.717 97.3473C389.193 96.1839 391.177 94.5582 392.668 92.4702C394.16 90.3821 395.144 87.9212 395.621 85.0874C396.069 82.2535 395.89 79.8075 395.084 77.7493C394.279 75.6612 392.832 74.0504 390.744 72.9169C388.686 71.7834 386.001 71.2166 382.69 71.2166H371.773L359.468 145H337.319ZM456.753 53.3636L441.54 145H419.392L434.605 53.3636H456.753ZM548.244 86.5639H526.14C526.26 84.2372 526.036 82.1641 525.469 80.3445C524.903 78.495 524.008 76.9141 522.785 75.6016C521.562 74.2592 520.04 73.245 518.221 72.5589C516.401 71.8729 514.283 71.5298 511.867 71.5298C507.243 71.5298 503.052 72.6783 499.294 74.9751C495.535 77.272 492.388 80.5831 489.853 84.9084C487.317 89.2337 485.542 94.424 484.528 100.479C483.604 106.326 483.618 111.203 484.573 115.111C485.557 119.018 487.377 121.957 490.032 123.925C492.687 125.864 496.057 126.834 500.144 126.834C502.799 126.834 505.26 126.521 507.527 125.894C509.824 125.238 511.897 124.298 513.746 123.075C515.596 121.852 517.192 120.376 518.534 118.646C519.906 116.886 520.965 114.932 521.711 112.784H543.993C542.89 116.811 541.07 120.823 538.535 124.82C536.029 128.788 532.867 132.382 529.049 135.604C525.231 138.825 520.801 141.406 515.76 143.344C510.719 145.283 505.111 146.253 498.936 146.253C490.494 146.253 483.216 144.359 477.101 140.57C471.015 136.782 466.616 131.293 463.901 124.104C461.216 116.886 460.709 108.146 462.38 97.8842C464.02 87.951 467.257 79.5838 472.089 72.7827C476.952 65.9815 482.858 60.8359 489.808 57.3459C496.788 53.8558 504.231 52.1108 512.135 52.1108C517.863 52.1108 523.008 52.8864 527.572 54.4375C532.166 55.9588 536.059 58.196 539.251 61.1491C542.442 64.0724 544.814 67.6669 546.365 71.9325C547.946 76.1982 548.572 81.0753 548.244 86.5639ZM611.39 81.0156C611.628 77.6449 610.733 75.0348 608.705 73.1854C606.706 71.3359 603.544 70.4112 599.219 70.4112C596.355 70.4112 593.909 70.7841 591.881 71.5298C589.853 72.2457 588.257 73.2599 587.093 74.5724C585.93 75.8551 585.199 77.3466 584.901 79.0469C584.632 80.3892 584.707 81.5824 585.125 82.6264C585.542 83.6705 586.273 84.5952 587.317 85.4006C588.391 86.206 589.718 86.907 591.299 87.5036C592.91 88.1001 594.715 88.6222 596.713 89.0696L604.23 90.8594C608.586 91.8438 612.359 93.1562 615.551 94.7969C618.772 96.4077 621.382 98.3615 623.381 100.658C625.38 102.925 626.752 105.536 627.498 108.489C628.243 111.442 628.303 114.753 627.676 118.422C626.722 124.209 624.44 129.175 620.831 133.322C617.251 137.468 612.568 140.645 606.781 142.852C601.024 145.06 594.327 146.163 586.691 146.163C579.054 146.163 572.566 145.015 567.227 142.718C561.917 140.391 558.069 136.886 555.683 132.203C553.297 127.52 552.655 121.614 553.759 114.484H574.923C574.595 117.438 574.968 119.898 576.042 121.867C577.145 123.836 578.846 125.327 581.142 126.342C583.439 127.356 586.213 127.863 589.465 127.863C592.448 127.863 595.058 127.46 597.295 126.655C599.562 125.849 601.367 124.731 602.709 123.299C604.081 121.867 604.917 120.227 605.215 118.377C605.513 116.677 605.23 115.2 604.365 113.947C603.529 112.695 602.098 111.606 600.069 110.681C598.071 109.756 595.446 108.921 592.194 108.175L583.022 105.938C575.445 104.089 569.703 101.136 565.795 97.0788C561.917 93.022 560.545 87.5185 561.679 80.5682C562.633 74.8707 564.99 69.8892 568.748 65.6236C572.537 61.358 577.324 58.0469 583.111 55.6903C588.928 53.304 595.326 52.1108 602.306 52.1108C609.406 52.1108 615.372 53.3189 620.204 55.7351C625.066 58.1214 628.571 61.4922 630.719 65.8473C632.897 70.1726 633.523 75.2287 632.598 81.0156H611.39Z" fill="white"/>
</svg>
