<svg width="275" height="292" viewBox="0 0 275 292" fill="none" xmlns="http://www.w3.org/2000/svg">
<path d="M159.432 0.999995C171.147 0.999995 182.44 5.37517 191.098 13.268L258.665 74.8698C268.434 83.7755 274 96.3831 274 109.602L274 176.818L274 267C274 280.255 263.255 291 250 291L25 291C11.7451 291 0.999988 280.255 0.999988 267L0.999999 25C0.999999 11.7451 11.7451 0.999988 25 0.999989L159.432 0.999995Z" fill="white" stroke="#1E1F27" stroke-width="2"/>
<path d="M227.715 47.498L1.5 47.498L1.5 25.9981C1.5 12.4671 12.469 1.49806 26 1.49806L156.331 1.49805C169.966 1.49805 183.106 6.60899 193.157 15.8222L227.715 47.498Z" fill="url(#paint0_linear_151_6)" stroke="#1E1F27"/>
<g filter="url(#filter0_d_151_6)">
<path d="M37.0847 29.4204C37.0847 29.0054 36.9993 28.6392 36.8284 28.3218C36.6575 28.0044 36.4174 27.7196 36.1082 27.4673C35.7826 27.2313 35.3961 27.0197 34.9485 26.8325C34.509 26.6372 34.0167 26.4622 33.4714 26.3076C32.6332 26.0716 31.8601 25.7827 31.1521 25.4409C30.4522 25.091 29.8541 24.7004 29.3577 24.269C28.8612 23.8296 28.4706 23.3332 28.1858 22.7798C27.9091 22.2183 27.7708 21.5876 27.7708 20.8877C27.7708 20.1309 27.9335 19.4513 28.259 18.8491C28.5846 18.2388 29.024 17.7179 29.5774 17.2866C30.1308 16.8634 30.7737 16.542 31.5061 16.3223C32.2467 16.0944 33.0238 15.9805 33.8376 15.9805C34.7003 15.9805 35.5019 16.1147 36.2424 16.3833C36.9911 16.6437 37.6422 17.0099 38.1956 17.4819C38.7489 17.9621 39.1843 18.5358 39.5017 19.2031C39.8272 19.8623 39.99 20.5947 39.99 21.4004H37.0847C37.044 20.9528 36.9464 20.5459 36.7917 20.1797C36.6453 19.8053 36.4377 19.4839 36.1692 19.2153C35.8925 18.9549 35.5548 18.7515 35.156 18.605C34.7654 18.4504 34.3137 18.373 33.801 18.373C33.3534 18.373 32.9384 18.4341 32.5559 18.5562C32.1816 18.6701 31.856 18.8328 31.5793 19.0444C31.3027 19.2642 31.087 19.5286 30.9324 19.8379C30.7778 20.1471 30.7004 20.493 30.7004 20.8755C30.7086 21.2824 30.8144 21.6405 31.0178 21.9497C31.2213 22.2508 31.4939 22.5153 31.8357 22.7432C32.1856 22.971 32.5844 23.1704 33.032 23.3413C33.4877 23.5122 33.9638 23.6709 34.4602 23.8174C35.0868 23.9964 35.6972 24.2202 36.2913 24.4888C36.8935 24.7492 37.4469 25.0666 37.9514 25.4409C38.578 25.9129 39.0785 26.4785 39.4529 27.1377C39.8354 27.7887 40.0266 28.5415 40.0266 29.396C40.0266 30.1854 39.8598 30.8812 39.5261 31.4834C39.2006 32.0856 38.7611 32.5861 38.2078 32.9849C37.6462 33.3999 36.9952 33.7132 36.2546 33.9248C35.5141 34.1283 34.7328 34.23 33.9109 34.23C33.0401 34.23 32.1816 34.0957 31.3352 33.8271C30.4889 33.5505 29.7524 33.1517 29.1257 32.6309C28.5479 32.1426 28.0881 31.5688 27.7463 30.9097C27.4127 30.2505 27.2418 29.4937 27.2336 28.6392H30.1633C30.204 29.1844 30.318 29.6605 30.5051 30.0674C30.7004 30.4661 30.9649 30.7957 31.2986 31.0562C31.6241 31.3247 32.0066 31.5241 32.446 31.6543C32.8936 31.7845 33.3819 31.8496 33.9109 31.8496C34.3585 31.8496 34.7735 31.7967 35.156 31.6909C35.5466 31.5851 35.8844 31.4264 36.1692 31.2148C36.4459 31.0114 36.6656 30.7591 36.8284 30.458C36.9993 30.1569 37.0847 29.811 37.0847 29.4204ZM48.7668 17.5674V20.79H53.7351V22.9751H48.7668V29.2861C48.7668 29.7744 48.8238 30.1854 48.9377 30.519C49.0598 30.8446 49.2266 31.1009 49.4382 31.2881C49.6498 31.4834 49.9021 31.6217 50.1951 31.7031C50.488 31.7845 50.8095 31.8252 51.1594 31.8252C51.4117 31.8252 51.6721 31.813 51.9407 31.7886C52.2092 31.7642 52.4696 31.7316 52.7219 31.6909C52.9661 31.6584 53.1939 31.6217 53.4055 31.5811C53.6252 31.5322 53.8083 31.4915 53.9548 31.459L54.2722 33.4731C54.0606 33.6034 53.8043 33.7173 53.5032 33.8149C53.2102 33.9045 52.8928 33.9818 52.551 34.0469C52.2092 34.112 51.8512 34.1608 51.4768 34.1934C51.1106 34.234 50.7444 34.2544 50.3782 34.2544C49.7109 34.2544 49.0964 34.1649 48.5349 33.9858C47.9815 33.7987 47.5055 33.5098 47.1067 33.1191C46.7079 32.7367 46.3946 32.2443 46.1667 31.6421C45.947 31.0399 45.8372 30.3156 45.8372 29.4692V22.9751H42.6389V20.79H45.8372V17.5674H48.7668ZM64.0867 34.2422C63.1101 34.2422 62.2149 34.0794 61.4011 33.7539C60.5955 33.4284 59.9037 32.9767 59.3259 32.3989C58.7481 31.8293 58.3005 31.1579 57.9832 30.3848C57.6739 29.6035 57.5193 28.7612 57.5193 27.8579V27.3574C57.5193 26.3239 57.682 25.388 58.0076 24.5498C58.3331 23.7116 58.7807 22.9954 59.3503 22.4014C59.92 21.8073 60.5792 21.3516 61.3279 21.0342C62.0847 20.7087 62.8904 20.5459 63.7449 20.5459C64.697 20.5459 65.5393 20.7087 66.2717 21.0342C67.0042 21.3516 67.6186 21.7951 68.115 22.3647C68.6114 22.9425 68.9858 23.6302 69.238 24.4277C69.4903 25.2253 69.6165 26.096 69.6165 27.04V28.2974H60.4612V28.3584C60.5507 28.9362 60.689 29.4204 60.8762 29.811C61.0634 30.2017 61.3197 30.5516 61.6453 30.8608C61.9708 31.1864 62.3533 31.4386 62.7927 31.6177C63.2403 31.7967 63.7286 31.8862 64.2576 31.8862C64.9819 31.8862 65.6573 31.7479 66.2839 31.4712C66.9106 31.1864 67.4273 30.7835 67.8342 30.2627L69.3967 31.7764C68.9573 32.4111 68.2818 32.9808 67.3704 33.4854C66.467 33.9899 65.3725 34.2422 64.0867 34.2422ZM63.7327 22.9141C63.3176 22.9141 62.9311 22.9914 62.573 23.146C62.2231 23.2925 61.9097 23.5041 61.6331 23.7808C61.3564 24.0656 61.1244 24.4074 60.9373 24.8062C60.7501 25.2049 60.6117 25.6566 60.5222 26.1611H66.7356V25.9658C66.7356 25.5833 66.6664 25.2049 66.5281 24.8306C66.3897 24.4481 66.1944 24.1144 65.9421 23.8296C65.698 23.5529 65.3888 23.3332 65.0144 23.1704C64.6482 22.9995 64.2209 22.9141 63.7327 22.9141ZM72.9612 39.0762V20.79H75.6467L75.7566 22.145C75.9356 21.9253 76.1309 21.7259 76.3425 21.5469C76.5541 21.3678 76.782 21.2132 77.0261 21.083C77.3435 20.9121 77.6934 20.7819 78.0759 20.6924C78.4584 20.5947 78.8653 20.5459 79.2966 20.5459C80.143 20.5459 80.8876 20.7087 81.5305 21.0342C82.1816 21.3597 82.7268 21.8195 83.1663 22.4136C83.5976 23.0076 83.9272 23.7197 84.155 24.5498C84.3829 25.3717 84.4968 26.2791 84.4968 27.272V27.5283C84.4968 28.4805 84.3829 29.3675 84.155 30.1895C83.9353 31.0114 83.6057 31.7194 83.1663 32.3135C82.7268 32.9157 82.1856 33.3877 81.5427 33.7295C80.8998 34.0713 80.1633 34.2422 79.3333 34.2422C78.8612 34.2422 78.4259 34.1934 78.0271 34.0957C77.6365 33.998 77.2743 33.8556 76.9407 33.6685C76.7454 33.5545 76.5582 33.4243 76.3792 33.2778C76.2001 33.1313 76.0333 32.9727 75.8787 32.8018V39.0762H72.9612ZM81.5793 27.272C81.5793 26.6779 81.5183 26.1204 81.3962 25.5996C81.2823 25.0706 81.1033 24.6108 80.8591 24.2202C80.6069 23.8296 80.2854 23.5203 79.8948 23.2925C79.5042 23.0646 79.0362 22.9507 78.491 22.9507C78.1899 22.9507 77.9091 22.9832 77.6487 23.0483C77.3883 23.1134 77.1563 23.207 76.9529 23.3291C76.7169 23.4593 76.5094 23.6221 76.3303 23.8174C76.1594 24.0127 76.0089 24.2324 75.8787 24.4766V30.3481C75.9926 30.576 76.1309 30.7835 76.2937 30.9707C76.4565 31.1579 76.6436 31.3206 76.8552 31.459C77.075 31.5892 77.3232 31.695 77.5999 31.7764C77.8765 31.8496 78.1817 31.8862 78.5154 31.8862C79.0606 31.8862 79.5245 31.7723 79.907 31.5444C80.2976 31.3084 80.615 30.991 80.8591 30.5923C81.1114 30.1854 81.2945 29.7215 81.4084 29.2007C81.5224 28.6717 81.5793 28.1143 81.5793 27.5283V27.272ZM112.561 27.6626H114.795V30.0308H112.561V33.998H109.643V30.0308H101.953L101.88 28.2363L109.558 16.2246H112.561V27.6626ZM104.858 27.6626H109.643V20.1309L109.302 20.7656L104.858 27.6626Z" fill="#1E1F27"/>
</g>
<defs>
<filter id="filter0_d_151_6" x="25.2336" y="12.9805" width="89.561" height="26.0957" filterUnits="userSpaceOnUse" color-interpolation-filters="sRGB">
<feFlood flood-opacity="0" result="BackgroundImageFix"/>
<feColorMatrix in="SourceAlpha" type="matrix" values="0 0 0 0 0 0 0 0 0 0 0 0 0 0 0 0 0 0 127 0" result="hardAlpha"/>
<feOffset dx="-2" dy="-3"/>
<feComposite in2="hardAlpha" operator="out"/>
<feColorMatrix type="matrix" values="0 0 0 0 1 0 0 0 0 1 0 0 0 0 1 0 0 0 1 0"/>
<feBlend mode="normal" in2="BackgroundImageFix" result="effect1_dropShadow_151_6"/>
<feBlend mode="normal" in="SourceGraphic" in2="effect1_dropShadow_151_6" result="shape"/>
</filter>
<linearGradient id="paint0_linear_151_6" x1="137.402" y1="0.998246" x2="137.402" y2="55.0924" gradientUnits="userSpaceOnUse">
<stop stop-color="#7AE6CC"/>
<stop offset="1" stop-color="#B1FEEB"/>
</linearGradient>
</defs>
</svg>
