<svg width="348" height="75" viewBox="0 0 348 75" fill="none" xmlns="http://www.w3.org/2000/svg">
<g filter="url(#filter0_d_190_2)">
<path d="M0 64L-1.33761e-06 32L29.7182 1.39598e-05L338 8.11373e-06L338 32L303.627 64L0 64Z" fill="url(#paint0_linear_190_2)"/>
<path d="M303.43 63.5L0.5 63.5L0.499999 32.1964L29.9362 0.500014L337.5 0.500008L337.5 31.7823L303.43 63.5Z" stroke="black"/>
</g>
<g filter="url(#filter1_d_190_2)">
<path d="M75.4467 42L69.5973 20.9091H72.9442L77.0533 37.2422H77.2489L81.5227 20.9091H84.8388L89.1126 37.2525H89.3082L93.407 20.9091H96.7642L90.9045 42H87.7017L83.2631 26.2024H83.0984L78.6598 42H75.4467ZM99.6349 42H96.257L103.847 20.9091H107.523L115.113 42H111.735L105.773 24.7401H105.608L99.6349 42ZM100.201 33.7408H111.159V36.4183H100.201V33.7408ZM135.182 20.9091V42H132.257L121.537 26.532H121.341V42H118.159V20.9091H121.104L131.835 36.3977H132.031V20.9091H135.182ZM138.784 23.6484V20.9091H155.107V23.6484H148.526V42H145.354V23.6484H138.784ZM177.892 26.4496C177.782 25.4747 177.329 24.7195 176.532 24.1839C175.736 23.6416 174.733 23.3704 173.525 23.3704C172.66 23.3704 171.912 23.5077 171.28 23.7823C170.648 24.0501 170.158 24.4208 169.807 24.8945C169.464 25.3614 169.293 25.8935 169.293 26.4908C169.293 26.992 169.409 27.4245 169.643 27.7884C169.883 28.1522 170.195 28.4577 170.58 28.7049C170.971 28.9452 171.39 29.1477 171.836 29.3125C172.282 29.4704 172.712 29.6009 173.123 29.7038L175.183 30.2393C175.856 30.4041 176.546 30.6272 177.253 30.9087C177.96 31.1902 178.616 31.561 179.22 32.021C179.824 32.4809 180.312 33.0508 180.682 33.7305C181.06 34.4102 181.249 35.2237 181.249 36.1712C181.249 37.3658 180.94 38.4265 180.322 39.3533C179.711 40.2802 178.822 41.0114 177.655 41.5469C176.494 42.0824 175.09 42.3501 173.443 42.3501C171.864 42.3501 170.497 42.0996 169.344 41.5984C168.191 41.0972 167.288 40.3866 166.636 39.4666C165.983 38.5398 165.623 37.4413 165.554 36.1712H168.747C168.809 36.9332 169.056 37.5683 169.488 38.0763C169.928 38.5775 170.487 38.9517 171.167 39.1989C171.853 39.4392 172.605 39.5593 173.422 39.5593C174.322 39.5593 175.121 39.4186 175.822 39.1371C176.529 38.8487 177.085 38.4505 177.49 37.9425C177.895 37.4276 178.098 36.8268 178.098 36.1403C178.098 35.5155 177.919 35.004 177.562 34.6058C177.212 34.2076 176.735 33.8781 176.131 33.6172C175.533 33.3563 174.857 33.1263 174.102 32.9272L171.61 32.2475C169.921 31.7875 168.582 31.1113 167.593 30.2188C166.612 29.3262 166.121 28.1454 166.121 26.6761C166.121 25.4609 166.45 24.4002 167.109 23.494C167.768 22.5877 168.661 21.884 169.787 21.3828C170.913 20.8748 172.183 20.6207 173.597 20.6207C175.025 20.6207 176.285 20.8713 177.377 21.3725C178.475 21.8737 179.34 22.5637 179.972 23.4425C180.603 24.3144 180.933 25.3168 180.96 26.4496H177.892ZM203.372 31.4545C203.372 33.7064 202.96 35.6425 202.136 37.2628C201.313 38.8762 200.183 40.1188 198.748 40.9908C197.32 41.8558 195.696 42.2884 193.877 42.2884C192.051 42.2884 190.42 41.8558 188.985 40.9908C187.557 40.1188 186.431 38.8728 185.608 37.2525C184.784 35.6322 184.372 33.6996 184.372 31.4545C184.372 29.2027 184.784 27.27 185.608 25.6566C186.431 24.0363 187.557 22.7937 188.985 21.9286C190.42 21.0567 192.051 20.6207 193.877 20.6207C195.696 20.6207 197.32 21.0567 198.748 21.9286C200.183 22.7937 201.313 24.0363 202.136 25.6566C202.96 27.27 203.372 29.2027 203.372 31.4545ZM200.221 31.4545C200.221 29.7382 199.943 28.293 199.387 27.119C198.837 25.9381 198.082 25.0456 197.121 24.4414C196.167 23.8304 195.085 23.5249 193.877 23.5249C192.662 23.5249 191.577 23.8304 190.623 24.4414C189.669 25.0456 188.913 25.9381 188.357 27.119C187.808 28.293 187.533 29.7382 187.533 31.4545C187.533 33.1709 187.808 34.6196 188.357 35.8004C188.913 36.9744 189.669 37.867 190.623 38.478C191.577 39.0821 192.662 39.3842 193.877 39.3842C195.085 39.3842 196.167 39.0821 197.121 38.478C198.082 37.867 198.837 36.9744 199.387 35.8004C199.943 34.6196 200.221 33.1709 200.221 31.4545ZM207.34 20.9091H211.201L217.916 37.304H218.163L224.878 20.9091H228.739V42H225.712V26.7379H225.516L219.296 41.9691H216.783L210.563 26.7276H210.367V42H207.34V20.9091ZM233.366 42V20.9091H246.589V23.6484H236.548V30.0746H245.899V32.8036H236.548V39.2607H246.713V42H233.366ZM253.96 35.9343V35.7386C253.974 34.4616 254.101 33.4455 254.341 32.6903C254.588 31.9351 254.938 31.3241 255.391 30.8572C255.845 30.3904 256.39 29.9647 257.029 29.5803C257.441 29.3194 257.812 29.0276 258.141 28.7049C258.471 28.3822 258.732 28.0115 258.924 27.5927C259.116 27.1739 259.212 26.7105 259.212 26.2024C259.212 25.5914 259.068 25.0627 258.78 24.6165C258.491 24.1702 258.107 23.8269 257.626 23.5866C257.152 23.3395 256.624 23.2159 256.04 23.2159C255.512 23.2159 255.007 23.3258 254.526 23.5455C254.046 23.7652 253.648 24.1084 253.332 24.5753C253.016 25.0353 252.834 25.6291 252.786 26.3569H249.655C249.703 25.1211 250.016 24.0775 250.592 23.2262C251.169 22.368 251.931 21.7192 252.879 21.2798C253.833 20.8404 254.887 20.6207 256.04 20.6207C257.303 20.6207 258.409 20.8576 259.356 21.3313C260.304 21.7982 261.038 22.4538 261.56 23.2983C262.089 24.1359 262.353 25.1142 262.353 26.2333C262.353 27.0022 262.233 27.6957 261.993 28.3136C261.752 28.9246 261.409 29.4704 260.963 29.951C260.523 30.4316 259.995 30.8572 259.377 31.228C258.793 31.5919 258.32 31.9695 257.956 32.3608C257.599 32.7521 257.338 33.2156 257.173 33.7511C257.008 34.2866 256.919 34.9491 256.905 35.7386V35.9343H253.96ZM255.515 42.1957C254.952 42.1957 254.468 41.9966 254.063 41.5984C253.658 41.1933 253.455 40.7058 253.455 40.136C253.455 39.573 253.658 39.0924 254.063 38.6942C254.468 38.2892 254.952 38.0866 255.515 38.0866C256.071 38.0866 256.552 38.2892 256.957 38.6942C257.369 39.0924 257.575 39.573 257.575 40.136C257.575 40.5136 257.479 40.8603 257.286 41.1761C257.101 41.4851 256.854 41.7322 256.545 41.9176C256.236 42.103 255.893 42.1957 255.515 42.1957Z" fill="black"/>
</g>
<defs>
<filter id="filter0_d_190_2" x="0" y="0" width="347.9" height="74.9" filterUnits="userSpaceOnUse" color-interpolation-filters="sRGB">
<feFlood flood-opacity="0" result="BackgroundImageFix"/>
<feColorMatrix in="SourceAlpha" type="matrix" values="0 0 0 0 0 0 0 0 0 0 0 0 0 0 0 0 0 0 127 0" result="hardAlpha"/>
<feOffset dx="8" dy="9"/>
<feGaussianBlur stdDeviation="0.95"/>
<feComposite in2="hardAlpha" operator="out"/>
<feColorMatrix type="matrix" values="0 0 0 0 0 0 0 0 0 0 0 0 0 0 0 0 0 0 0.25 0"/>
<feBlend mode="normal" in2="BackgroundImageFix" result="effect1_dropShadow_190_2"/>
<feBlend mode="normal" in="SourceGraphic" in2="effect1_dropShadow_190_2" result="shape"/>
</filter>
<filter id="filter1_d_190_2" x="67.5973" y="17.6211" width="194.756" height="24.7295" filterUnits="userSpaceOnUse" color-interpolation-filters="sRGB">
<feFlood flood-opacity="0" result="BackgroundImageFix"/>
<feColorMatrix in="SourceAlpha" type="matrix" values="0 0 0 0 0 0 0 0 0 0 0 0 0 0 0 0 0 0 127 0" result="hardAlpha"/>
<feOffset dx="-2" dy="-3"/>
<feComposite in2="hardAlpha" operator="out"/>
<feColorMatrix type="matrix" values="0 0 0 0 1 0 0 0 0 1 0 0 0 0 1 0 0 0 1 0"/>
<feBlend mode="normal" in2="BackgroundImageFix" result="effect1_dropShadow_190_2"/>
<feBlend mode="normal" in="SourceGraphic" in2="effect1_dropShadow_190_2" result="shape"/>
</filter>
<linearGradient id="paint0_linear_190_2" x1="30.4343" y1="92.2947" x2="272.107" y2="-10.162" gradientUnits="userSpaceOnUse">
<stop stop-color="#7AE6CC"/>
<stop offset="1" stop-color="#B1FEEB"/>
</linearGradient>
</defs>
</svg>
